<svg width="26" height="24" viewBox="0 0 26 24" fill="none" xmlns="http://www.w3.org/2000/svg">
<path fill-rule="evenodd" clip-rule="evenodd" d="M25.8 13.91L23.49 17.84L21.18 21.77C20.83 21.58 20.44 21.47 20.01 21.47C18.73 21.47 17.69 22.49 17.69 23.75H13.07H8.45C8.45 22.49 7.41 21.47 6.13 21.47C5.7 21.47 5.3 21.58 4.96 21.77L2.65 17.84L0.339996 13.91C1.04 13.51 1.51 12.77 1.51 11.93C1.51 11.08 1.04 10.34 0.339996 9.95001L2.65 6.01001L4.96 2.08001C5.3 2.28001 5.7 2.39001 6.13 2.39001C7.41 2.39001 8.45 1.36001 8.45 0.100006H13.07H17.69C17.69 1.36001 18.73 2.39001 20.01 2.39001C20.44 2.39001 20.83 2.28001 21.18 2.08001L23.49 6.01001L25.8 9.95001C25.1 10.34 24.63 11.08 24.63 11.93C24.63 12.77 25.1 13.51 25.8 13.91Z" fill="white"/>
<path fill-rule="evenodd" clip-rule="evenodd" d="M25.8 13.91L23.49 17.84L21.18 21.77C20.83 21.58 20.44 21.47 20.01 21.47C18.73 21.47 17.69 22.49 17.69 23.75H13.07H8.45C8.45 22.49 7.41 21.47 6.13 21.47C5.7 21.47 5.3 21.58 4.96 21.77L2.65 17.84L0.339996 13.91C1.04 13.51 1.51 12.77 1.51 11.93C1.51 11.08 1.04 10.34 0.339996 9.95001L2.65 6.01001L4.96 2.08001C5.3 2.28001 5.7 2.39001 6.13 2.39001C7.41 2.39001 8.45 1.36001 8.45 0.100006H13.07H17.69C17.69 1.36001 18.73 2.39001 20.01 2.39001C20.44 2.39001 20.83 2.28001 21.18 2.08001L23.49 6.01001L25.8 9.95001C25.1 10.34 24.63 11.08 24.63 11.93C24.63 12.77 25.1 13.51 25.8 13.91ZM24.84 14.09C24.25 13.54 23.9 12.76 23.9 11.93C23.9 11.1 24.25 10.32 24.84 9.76001L20.87 2.99001C20.59 3.06001 20.3 3.10001 20.01 3.10001C18.58 3.10001 17.37 2.13001 17.05 0.820006H9.09C8.77 2.13001 7.56 3.10001 6.13 3.10001C5.84 3.10001 5.55 3.06001 5.27 2.99001L1.3 9.76001C1.89 10.32 2.24 11.1 2.24 11.93C2.24 12.76 1.89 13.54 1.3 14.1L5.27 20.87C5.55 20.79 5.84 20.75 6.13 20.75C7.56 20.75 8.77 21.73 9.09 23.04H17.05C17.37 21.73 18.58 20.75 20.01 20.75C20.3 20.75 20.59 20.79 20.87 20.87L24.84 14.09Z" fill="#161642"/>
<path fill-rule="evenodd" clip-rule="evenodd" d="M9.23 16.31L8.78 17.82C9 17.99 9.84 18.48 10.11 18.59L11.2 17.57L11.96 17.77L12.41 19.18H13.96L14.3 17.7L15.11 17.48L16.18 18.58L17.51 17.83L17.03 16.4L17.69 15.79L19.14 16.2L19.91 14.91L18.82 13.86L19.06 12.95L20.52 12.68L20.54 11.18C20.19 11.08 18.95 11.19 18.71 11.07C18.44 10.94 18.49 10.59 17.76 10.65C17.46 10.65 17.69 10.65 17.4 10.64C17.58 11.81 17.78 12.56 17.27 13.67C16.42 15.52 14.83 16.32 12.81 16.32C11.85 16.32 10.1 16.27 9.23 16.31Z" fill="#161642"/>
<path fill-rule="evenodd" clip-rule="evenodd" d="M11.16 6.37001L10.15 5.33001L8.8 6.03001L9.23 7.54001L8.67 8.06001L7.14 7.65001L7.06 7.76001L7.03 7.80001L6.37 8.96001L7.47 10L7.4 10.99L5.77 11.21L5.75 12.68L7.18 12.69C7.46 12.76 7.72 13.03 7.86 13.2L8.88 13.18C8.76 12.69 8.63 12.28 8.66 11.65C8.72 10.59 9.17 9.63001 9.86 8.89001C10.12 8.64001 10.02 8.68001 10.62 8.29001C12.59 7.01001 14.61 7.72001 17.01 7.51001C17.15 7.31001 17.45 6.32001 17.49 6.03001L16.08 5.29001L15.12 6.36001L14.3 6.17001L13.87 4.68001H12.41L12.1 6.08001L11.16 6.37001Z" fill="#161642"/>
<path fill-rule="evenodd" clip-rule="evenodd" d="M16.98 12.35L17.01 11.92H16.37C16.18 13.17 15.92 13.73 15.19 14.33C14.28 15.08 13.71 15.06 12.36 15.06H9.05C8.16 15.05 8.31 15.31 7.82 15.7H6.13C5.95 15.61 6.04 15.65 5.91 15.46C5.7 15.12 5.35 14.95 4.9 15C3.72 15.14 3.71 16.88 4.9 17.03C5.2 17.07 5.48 16.97 5.68 16.83C6.39 16.35 5.16 16.32 7.82 16.34C8.24 16.34 8.2 16.34 8.42 16.11C8.55 15.98 8.7 15.77 8.88 15.71C8.98 15.69 12.58 15.74 13.54 15.68C15.35 15.57 16.75 14.08 16.98 12.35ZM5.43 16.01C5.26 16.64 4.66 16.39 4.66 16.01C4.67 15.63 5.26 15.41 5.43 16.01Z" fill="#0000FF"/>
<path fill-rule="evenodd" clip-rule="evenodd" d="M9.94 11.93L9.3 11.92C9.28 12.8 9.53 13.11 9.77 13.8H7.51C7.19 12.83 5.47 12.93 5.49 14.14C5.51 15.32 7.22 15.47 7.5 14.44H11.17C11.11 14.31 10.85 14.1 10.73 13.97C10.19 13.38 10.02 12.76 9.94 11.93ZM6.38 13.78C6.88 13.59 7.11 14.37 6.65 14.49C6.16 14.61 5.95 13.94 6.38 13.78Z" fill="#0000FF"/>
<path fill-rule="evenodd" clip-rule="evenodd" d="M9.3 11.92L9.94 11.93C9.98 10.62 10.62 9.85001 11.34 9.33001C12.25 8.65001 13.59 8.75001 14.88 8.77001C16.22 8.79001 15.35 8.78001 16.69 8.78001C18.23 8.78001 17.51 8.75001 18.15 8.24001C18.39 8.05001 19.66 8.13001 20.09 8.15001C20.34 8.52001 20.52 8.89001 21.22 8.83001C22.38 8.72001 22.47 7.00001 21.26 6.83001C20.54 6.74001 20.35 7.13001 20.1 7.50001C19.68 7.53001 18.23 7.44001 17.97 7.56001C17.76 7.65001 17.58 7.98001 17.42 8.08001C17.17 8.22001 14.74 8.14001 14.21 8.14001C12.74 8.14001 11.63 8.19001 10.7 8.98001C9.93 9.64001 9.36 10.5 9.3 11.92ZM21.45 7.66001C21.52 8.37001 20.84 8.29001 20.74 7.94001C20.68 7.72001 20.8 7.54001 20.98 7.49001C21.23 7.41001 21.31 7.55001 21.45 7.66001Z" fill="#06A2C9"/>
<path fill-rule="evenodd" clip-rule="evenodd" d="M16.37 11.92H17.01L16.98 12.35C17.11 11.16 16.75 10.76 16.51 10.05H18.57C18.82 10.46 19.08 10.81 19.74 10.71C20.23 10.64 20.58 10.27 20.59 9.72001C20.6 8.59001 18.97 8.31001 18.59 9.40001H15.11C15.2 9.55001 15.42 9.67001 15.57 9.87001C16.12 10.58 16.28 10.93 16.37 11.92ZM19.21 9.83001C19.05 9.30001 19.82 9.18001 19.92 9.62001C20.04 10.16 19.31 10.2 19.21 9.83001Z" fill="#06A2C9"/>
<path fill-rule="evenodd" clip-rule="evenodd" d="M11.57 10.43H14.63V13.44H11.57V10.43ZM12.91 9.30001V10.06H12.43V9.47001C12.43 9.26001 12.05 9.26001 12.05 9.49001V10.06H11.36C11.22 10.06 11.18 10.2 11.18 10.32V10.9H10.66C10.36 10.9 10.37 11.28 10.64 11.28H11.19V11.76H10.51C10.23 11.77 10.24 12.12 10.52 12.12H11.19V12.6H10.65C10.57 12.6 10.48 12.67 10.48 12.78C10.47 12.86 10.54 12.97 10.63 12.97H11.19V13.65C11.19 13.74 11.28 13.82 11.37 13.82H12.05V14.49C12.05 14.73 12.44 14.72 12.44 14.49V13.82H12.92V14.51C12.92 14.74 13.3 14.74 13.3 14.5V13.82H13.78V14.38C13.78 14.67 14.15 14.59 14.15 14.44V13.82H14.81C14.94 13.82 15.03 13.74 15.03 13.62V12.97H15.57C15.79 12.97 15.79 12.6 15.57 12.6H15.01V12.12H15.76C16.01 12.12 16.04 11.75 15.79 11.74H15.01V11.28H15.52C15.86 11.28 15.83 10.9 15.56 10.9H15.01V10.19C15.01 10.14 14.92 10.06 14.87 10.06H14.15V9.33001C14.15 9.10001 13.78 9.10001 13.78 9.31001V10.06H13.3V9.29001C13.26 9.14001 12.91 9.14001 12.91 9.30001Z" fill="#161642"/>
<path fill-rule="evenodd" clip-rule="evenodd" d="M12.38 11.22H13.82V12.66H12.38V11.22ZM11.99 11.09C11.99 11.32 11.98 12.77 12 12.87C12.02 12.98 12.1 13.03 12.23 13.03H14C14.13 13.03 14.21 12.94 14.21 12.82V11.05C14.21 10.95 14.14 10.85 14.05 10.85H12.16C12.04 10.85 11.99 10.97 11.99 11.09Z" fill="#0000FF"/>
<path fill-rule="evenodd" clip-rule="evenodd" d="M12.67 11.61C12.67 11.7 12.67 12.26 12.68 12.3C12.69 12.34 12.72 12.36 12.77 12.36H13.45C13.5 12.36 13.53 12.33 13.53 12.28V11.6C13.53 11.56 13.5 11.52 13.46 11.52H12.74C12.69 11.52 12.67 11.57 12.67 11.61ZM12.95 11.82C12.95 11.86 12.95 12.05 12.95 12.07C12.95 12.08 12.96 12.09 12.98 12.09H13.22C13.24 12.09 13.25 12.08 13.25 12.06V11.82C13.25 11.81 13.24 11.79 13.23 11.79H12.97C12.96 11.79 12.95 11.81 12.95 11.82Z" fill="#00A2E9"/>
<path d="M3.47999 13.69L3.33999 12.63L3.35999 12.6L3.58999 12.58L3.60999 12.59L3.65999 12.96L4.83999 12.82L4.85999 12.84L4.89999 13.12L4.87999 13.14L3.69999 13.29L3.73999 13.66L3.72999 13.68L3.49999 13.71L3.47999 13.69ZM3.31999 12.2L3.36999 11.29L3.38999 11.27L3.60999 11.28L3.62999 11.3L3.59999 11.91L3.93999 11.93L3.95999 11.38L3.97999 11.36L4.19999 11.37L4.21999 11.39L4.19999 11.94L4.54999 11.96L4.58999 11.34L4.60999 11.32L4.82999 11.33L4.84999 11.35L4.79999 12.28L4.77999 12.3L3.33999 12.22L3.31999 12.2ZM3.37999 10.89L3.43999 10.61L3.45999 10.59L4.18999 10.74V10.73C3.82999 10.39 3.61999 10.18 3.54999 10.1L3.61999 9.77L3.63999 9.75L4.12999 10.27L5.05999 10.03L5.06999 10.04L4.99999 10.37C4.99999 10.38 4.77999 10.44 4.33999 10.54V10.55C4.50999 10.73 4.60999 10.83 4.62999 10.83L4.86999 10.88L4.88999 10.9L4.82999 11.19L4.80999 11.2L3.38999 10.91L3.37999 10.89ZM3.81999 9.07C3.81999 9.06 4.17999 9.01 4.88999 8.92H4.90999V8.91L4.89999 8.9L4.01999 8.59L3.99999 8.57L4.08999 8.33L4.11999 8.32L5.46999 8.8L5.47999 8.83L5.36999 9.12C5.26999 9.15 4.90999 9.2 4.28999 9.27L4.27999 9.28L5.17999 9.6L5.18999 9.62L5.09999 9.85L5.06999 9.87L3.70999 9.39V9.38L3.81999 9.07ZM4.22999 8.03L4.35999 7.78L4.37999 7.77L5.67999 8.39L5.68999 8.41L5.55999 8.67H5.53999L4.23999 8.06L4.22999 8.03ZM4.49999 7.48L4.65999 7.23L4.67999 7.22L5.31999 7.6C5.09999 7.16 4.96999 6.89 4.92999 6.79L5.10999 6.5L5.13999 6.49L5.41999 7.14L6.37999 7.22L6.38999 7.23L6.20999 7.52C6.19999 7.53 5.97999 7.51 5.52999 7.47H5.51999C5.62999 7.7 5.68999 7.82 5.69999 7.83L5.91999 7.96V7.99L5.76999 8.23L5.73999 8.24L4.50999 7.5L4.49999 7.48ZM5.82999 5.66L6.01999 5.45H6.04999L7.10999 6.4V6.43L6.91999 6.64H6.88999L5.82999 5.68V5.66ZM6.54999 4.93C6.56999 4.92 6.89999 5.05 7.55999 5.34H7.56999L7.57999 5.33H7.56999L6.97999 4.61L6.96999 4.59L7.16999 4.43H7.19999L8.10999 5.53V5.55L7.85999 5.75C7.75999 5.72 7.41999 5.58 6.84999 5.33V5.34L7.44999 6.06L7.43999 6.09L7.24999 6.25H7.20999L6.29999 5.15V5.13L6.54999 4.93ZM7.47999 4.2L8.26999 3.73L8.29999 3.74L8.40999 3.92V3.95L7.88999 4.25L8.07999 4.57L8.54999 4.29L8.56999 4.3L8.68999 4.48L8.67999 4.51L8.21999 4.78L8.50999 5.27L8.49999 5.29L8.23999 5.45L8.21999 5.44L7.46999 4.23L7.47999 4.2ZM8.77999 3.46L9.43999 3.18L9.73999 3.3L10.14 4.23L10.02 4.52L9.34999 4.8L9.04999 4.68L8.65999 3.75L8.77999 3.46ZM9.00999 3.72L9.32999 4.46L9.42999 4.5L9.72999 4.37L9.78999 4.27L9.46999 3.53L9.36999 3.49L9.05999 3.62L9.00999 3.72ZM10.88 2.74L11.15 2.9L11.26 3.33L11.13 3.55L11.47 4.08V4.09L11.17 4.17C11.15 4.17 11.04 4.01 10.83 3.67L10.51 3.74L10.65 4.28L10.63 4.3L10.35 4.37L10.32 4.36L9.95999 2.98L9.96999 2.97L10.88 2.74ZM10.35 3.12L10.46 3.53L10.86 3.42L10.92 3.33L10.85 3.07L10.76 3.01L10.35 3.12ZM11.57 2.58L12.05 2.56C12.07 2.58 12.2 2.95 12.45 3.69C12.46 3.69 12.53 3.42 12.65 2.89C12.71 2.65 12.74 2.53 12.75 2.53L13.23 2.5L13.24 2.51H13.25L13.32 3.94L13.29 3.96L13.01 3.97L13 3.95L12.94 2.79H12.93C12.74 3.59 12.64 3.99 12.62 3.99L12.28 4.01C12.26 4.01 12.12 3.62 11.86 2.83H11.85L11.91 4L11.89 4.02L11.64 4.04L11.62 4.02L11.55 2.6L11.57 2.58ZM14.47 2.63C14.49 2.63 14.56 3.13 14.69 4.12L14.68 4.13L14.38 4.09C14.36 4.07 14.34 3.96 14.32 3.75L13.84 3.69C13.77 3.9 13.73 4 13.71 4L13.43 3.96L13.42 3.94L14 2.58L14.01 2.57L14.47 2.63ZM14.2 2.81L13.95 3.45L14.29 3.49L14.21 2.81H14.2ZM15.29 2.78L16.33 3.09L16.35 3.12L16.28 3.33L16.25 3.35L15.89 3.24L15.54 4.35L15.52 4.37L15.24 4.28L15.23 4.26L15.58 3.14L15.21 3.03L15.2 3.01L15.27 2.79L15.29 2.78ZM16.68 3.23L16.94 3.35L16.95 3.37L16.36 4.67L16.34 4.68L16.07 4.56V4.53L16.66 3.24L16.68 3.23ZM17.27 3.48L17.53 3.63V3.65L17.16 4.28V4.29C17.6 4.06 17.88 3.93 17.98 3.89L18.28 4.06V4.09L17.63 4.37L17.56 5.32L17.55 5.33L17.25 5.16C17.24 5.15 17.26 4.93 17.3 4.49L17.29 4.48C17.06 4.58 16.94 4.65 16.93 4.66L16.8 4.87L16.78 4.88L16.52 4.73L16.51 4.71L17.25 3.49L17.27 3.48ZM19.27 4.82C19.29 4.83 19.08 5.29 18.65 6.19H18.64L18.4 6C18.39 5.98 18.44 5.87 18.53 5.69L18.17 5.38C17.99 5.52 17.9 5.58 17.89 5.57L17.67 5.4V5.37L18.91 4.53H18.92L19.27 4.82ZM18.95 4.83L18.39 5.23L18.66 5.45L18.96 4.83H18.95Z" fill="#0000FF"/>
<path d="M7.28 17.41L7.47 17.56V17.58L6.84 18.34L7.2 18.62V18.65L7.08 18.79H7.06L6.5 18.35V18.32L7.26 17.41H7.28ZM8.47 18.27C8.49 18.28 8.37 18.68 8.13 19.48H8.12L7.9 19.35C7.89 19.33 7.92 19.24 7.97 19.07L7.63 18.87C7.51 19 7.44 19.07 7.43 19.06L7.23 18.94L7.22 18.92L8.14 18.08L8.15 18.07L8.47 18.27ZM8.21 18.31L7.8 18.72L8.04 18.87L8.22 18.32L8.21 18.31ZM8.89 18.53L9.58 18.86L9.66 19.09L9.54 19.34L9.35 19.41L9.41 19.6L9.28 19.87L9.04 19.95L8.35 19.62L8.34 19.6L8.86 18.54L8.89 18.53ZM9.03 18.82L8.9 19.08L9.21 19.23L9.29 19.2L9.37 19.04L9.34 18.97L9.03 18.82ZM8.81 19.26L8.67 19.55L8.99 19.71C9.03 19.7 9.06 19.68 9.08 19.66L9.16 19.49L9.13 19.41L8.81 19.26ZM10.02 19.04L10.58 19.24L10.69 19.48L10.4 20.27L10.15 20.38L9.59 20.17L9.48 19.93L9.77 19.15L10.02 19.04ZM10.01 19.33L9.77 19.95L9.81 20.04L10.07 20.13L10.16 20.09L10.4 19.47L10.36 19.39L10.09 19.29L10.01 19.33ZM11.58 19.5L11.72 19.71L11.63 20.07L11.44 20.19L11.48 20.71V20.72L11.22 20.66C11.21 20.65 11.2 20.49 11.18 20.16L10.91 20.09L10.8 20.54L10.78 20.55L10.54 20.49L10.53 20.47L10.81 19.32L10.82 19.31L11.58 19.5ZM11.04 19.57L10.96 19.91L11.3 19.99L11.38 19.94L11.43 19.73L11.38 19.65L11.04 19.57ZM12.51 19.65C12.52 19.65 12.6 20.06 12.73 20.88L12.72 20.89L12.47 20.86C12.45 20.85 12.43 20.76 12.41 20.58L12.01 20.55C11.96 20.72 11.92 20.81 11.91 20.81L11.68 20.78L11.66 20.77L12.12 19.62V19.61L12.51 19.65ZM12.29 19.8L12.09 20.34L12.38 20.37L12.3 19.8H12.29ZM12.95 19.71L13.85 19.68L13.87 19.69L13.88 19.88L13.86 19.9L13.55 19.91L13.58 20.88L13.56 20.9L13.32 20.91L13.3 20.89L13.27 19.92L12.95 19.93L12.94 19.91L12.93 19.72L12.95 19.71ZM14.16 19.64L14.75 19.57L14.97 19.74L15.07 20.57L14.9 20.78L14.3 20.85L14.09 20.68L13.99 19.85L14.16 19.64ZM14.28 19.91L14.36 20.57L14.44 20.62L14.71 20.59L14.78 20.52L14.7 19.86L14.62 19.8L14.34 19.84L14.28 19.91ZM15.72 19.33L15.95 19.45L16.05 19.81L15.95 20L16.24 20.43V20.44L15.99 20.51C15.98 20.51 15.88 20.38 15.7 20.1L15.44 20.17L15.56 20.61L15.55 20.63L15.32 20.7L15.29 20.68L14.96 19.54L14.97 19.53L15.72 19.33ZM15.29 19.65L15.38 19.99L15.72 19.9L15.77 19.82L15.71 19.6L15.62 19.56L15.29 19.65ZM16.02 19.24L16.24 19.15L16.26 19.16L16.7 20.26L16.69 20.28L16.47 20.37L16.44 20.36L16.01 19.26L16.02 19.24ZM16.39 19.1L16.62 18.99L16.64 19L17.05 19.81L17.14 19.84L17.38 19.73L17.41 19.63L17 18.82L17.01 18.8L17.23 18.69L17.25 18.7L17.71 19.6L17.62 19.85L17.1 20.11L16.84 20.02L16.39 19.12V19.1ZM17.35 18.65L17.67 18.42C17.69 18.42 17.96 18.63 18.47 19.04C18.48 19.03 18.4 18.81 18.24 18.39C18.18 18.19 18.15 18.09 18.15 18.09L18.48 17.86H18.49H18.5L19.2 18.82L19.18 18.85L19 18.98H18.97L18.4 18.19C18.63 18.84 18.74 19.16 18.73 19.17L18.5 19.33C18.48 19.34 18.21 19.13 17.67 18.69L17.66 18.7L18.23 19.5V19.52L18.06 19.64L18.04 19.63L17.35 18.67V18.65Z" fill="#00A2E9"/>
<path d="M18.87 17.49L19.04 17.31H19.06L19.41 17.65L19.7 17.36L19.34 17.02V17L19.51 16.83H19.53L20.4 17.65V17.67L20.23 17.84H20.21L19.87 17.52L19.59 17.81L19.92 18.13V18.15L19.76 18.33H19.73L18.87 17.51V17.49Z" fill="#00A2E9"/>
<path d="M19.95 16.22C19.96 16.21 20.36 16.35 21.15 16.64L21.16 16.65L21.01 16.86C20.99 16.86 20.9 16.83 20.73 16.77L20.5 17.09C20.63 17.22 20.69 17.29 20.68 17.3L20.55 17.49H20.52L19.73 16.54V16.53L19.95 16.22ZM19.98 16.48L20.36 16.92L20.53 16.68L19.98 16.47V16.48Z" fill="#00A2E9"/>
<path d="M20.55 15.21L20.79 15.13L21.13 15.3L21.2 15.5L21.73 15.58V15.59L21.62 15.81C21.61 15.83 21.44 15.8 21.11 15.75L20.99 15.99L21.41 16.19V16.22L21.3 16.43L21.27 16.44L20.2 15.91V15.9L20.55 15.21ZM20.5 15.75L20.82 15.9L20.97 15.6L20.95 15.51L20.74 15.41L20.65 15.44L20.5 15.75Z" fill="#00A2E9"/>
<path d="M20.94 14.29L21.18 14.17L21.99 14.43C22.08 14.57 22.11 14.66 22.1 14.68L21.87 15.37L21.85 15.38L20.96 15.09L20.7 15.01V15L20.94 14.29ZM20.98 14.81L21.75 15.06L21.86 14.75L21.81 14.66L21.18 14.45L21.08 14.51L20.98 14.81Z" fill="#00A2E9"/>
<path d="M21.09 13.84C21.09 13.82 21.17 13.82 21.32 13.83L22.06 13.85V13.84C21.58 13.67 21.28 13.55 21.16 13.49L21.22 13.16C21.22 13.14 21.51 13.14 22.09 13.14C22.09 13.13 22.13 13.13 22.2 13.14V13.13C21.74 12.98 21.43 12.87 21.28 12.81L21.32 12.6L21.34 12.59L22.5 13.03L22.44 13.35C22.43 13.36 22.24 13.37 21.84 13.37C21.72 13.37 21.58 13.38 21.44 13.37V13.38C22.06 13.61 22.36 13.74 22.36 13.75L22.3 14.07C22.3 14.09 22.09 14.09 21.69 14.08H21.05V14.07L21.09 13.84Z" fill="#00A2E9"/>
<path d="M21.35 11.89C21.35 11.87 21.76 11.77 22.59 11.59V11.6L22.58 11.85C22.57 11.87 22.48 11.89 22.31 11.92L22.29 12.32C22.47 12.36 22.56 12.39 22.56 12.4L22.55 12.63L22.54 12.64L21.34 12.27L21.33 12.26L21.35 11.89ZM21.52 12.09L22.08 12.25L22.09 11.96L21.52 12.08V12.09Z" fill="#00A2E9"/>
<path d="M21.3 10.71L21.47 10.51L21.84 10.48L22.01 10.61L22.51 10.4V10.41L22.54 10.66C22.54 10.68 22.38 10.74 22.07 10.87L22.1 11.14L22.56 11.1L22.58 11.11L22.6 11.35L22.58 11.37L21.38 11.48L21.37 11.47L21.3 10.71ZM21.55 11.18L21.91 11.15L21.87 10.81L21.8 10.75L21.58 10.77L21.52 10.84L21.55 11.18Z" fill="#00A2E9"/>
<path d="M21.25 10.39L21.14 9.64001L21.15 9.62001L21.33 9.59001L21.35 9.60001L21.43 10.1L21.71 10.06L21.64 9.61001L21.65 9.59001L21.83 9.56001L21.85 9.58001L21.92 10.03L22.22 9.98001L22.14 9.47001L22.15 9.46001L22.33 9.43001L22.35 9.44001L22.47 10.2L22.46 10.22L21.27 10.4L21.25 10.39Z" fill="#00A2E9"/>
</svg>
