<svg width="19" height="24" viewBox="0 0 19 24" fill="none" xmlns="http://www.w3.org/2000/svg">
<path fill-rule="evenodd" clip-rule="evenodd" d="M14.22 12.01L14.51 12.04C14.48 12.1 14.42 12.17 14.38 12.21C14.33 12.27 14.31 12.32 14.26 12.37C14.12 12.53 14.07 12.57 14.1 12.87C14.22 12.9 14.88 12.91 15.09 12.92C15.25 12.92 15.25 12.91 15.37 12.99C15.47 13.05 15.62 13.22 15.65 13.38C15.69 13.66 15.38 13.55 15.22 13.51C14.9 13.44 14.22 13.25 13.94 13.09C13.85 13.03 13.81 13.03 13.79 12.9C13.76 12.65 13.8 12.52 13.87 12.33L13.83 11.97L14.13 12L14.19 11.79C14.1 11.77 13.9 11.81 13.81 11.83C13.72 11.85 13.51 11.92 13.46 11.92C13.43 11.91 13.46 11.92 13.43 11.9L13.3 11.83C12.56 11.52 11.72 11.38 10.92 11.55C10.67 11.6 10.45 11.67 10.23 11.76C10.22 11.77 10.19 11.78 10.19 11.78C10.15 11.8 10.18 11.78 10.15 11.81C10.18 11.83 10.21 11.81 10.25 11.8C11.17 11.42 12.21 11.47 13.13 11.83C13.19 11.85 13.25 11.88 13.3 11.9L13.44 11.96C13.47 11.98 13.46 11.97 13.47 11.99L13.45 12.05C13.38 12.03 12.94 11.85 12.73 11.79C11.96 11.56 11.02 11.57 10.31 11.87C10.41 11.85 10.55 11.79 10.67 11.76C11.34 11.6 12.09 11.63 12.74 11.84C12.88 11.88 13.32 12.03 13.41 12.1L13.38 12.17C13.27 12.14 13.16 12.08 13.05 12.04C12.19 11.72 11.1 11.61 10.26 11.98C10.46 11.95 10.66 11.86 11.02 11.81C11.31 11.77 11.61 11.77 11.91 11.8C12.28 11.84 13.04 12.03 13.35 12.23L13.31 12.29C13.19 12.25 13.08 12.2 12.96 12.15C12.31 11.91 11.59 11.8 10.9 11.92C10.77 11.94 10.64 11.97 10.51 12C10.39 12.03 10.27 12.09 10.15 12.12L10.16 12.89C10.27 12.95 11.11 13.6 11.24 13.7C11.43 13.83 11.6 13.96 11.79 14.1C11.87 14.16 11.96 14.23 12.06 14.3C12.14 14.36 12.25 14.46 12.34 14.5L11.35 17.59H11.23V18.02H10.18V18.78C10.85 18.73 11.46 18.35 11.83 18.05C12.99 17.11 13.79 15.49 14.32 14.08C14.35 14.02 14.45 13.69 14.5 13.68H16.18C16.16 13.82 16.04 14.14 15.99 14.29C15.55 15.58 14.94 16.95 14.15 18C13.14 19.33 11.99 20.2 10.19 20.42C10.16 20.6 10.23 21 10.17 21.16C10.12 21.32 9.98 21.51 9.92 21.67C9.9 21.75 9.99 21.87 10.03 21.94C10.11 22.08 10.09 22.06 10.02 22.2C9.96 22.31 9.83 22.62 9.75 22.69C9.68 22.6 9.55 22.3 9.49 22.17C9.41 22.02 9.41 22.06 9.5 21.91C9.53 21.87 9.54 21.84 9.57 21.79C9.6 21.74 9.63 21.73 9.61 21.67C9.54 21.52 9.38 21.31 9.34 21.16C9.31 21.04 9.32 20.54 9.32 20.39C8.84 20.3 8.5 20.23 8.07 20.06C6.28 19.32 5.08 17.69 4.25 16C4.11 15.72 3.38 14.11 3.33 13.79L4.89 13.71C4.93 13.76 5 13.94 5.03 14C5.16 14.29 5.31 14.57 5.45 14.84C5.65 15.22 5.85 15.57 6.07 15.92C6.4 16.48 6.81 17.04 7.25 17.49C7.29 17.53 7.32 17.55 7.36 17.59C7.4 17.63 7.53 17.77 7.57 17.79C7.56 17.18 7.48 16.56 7.61 15.97C7.65 15.78 7.23 14.81 7.18 14.49C7.25 14.46 7.38 14.35 7.46 14.3C7.55 14.23 7.64 14.16 7.73 14.1C7.93 13.94 9.21 13.02 9.33 12.91V12.09C9.28 12.02 9.06 11.98 8.97 11.95C8.16 11.72 7.25 11.83 6.48 12.14C6.28 12.22 6.21 12.3 6.17 12.19V12.18L6.47 12.05C6.58 12 6.69 11.96 6.8 11.93C7.3 11.78 7.84 11.7 8.37 11.75C8.72 11.79 8.9 11.87 9.12 11.9C9 11.82 8.57 11.75 8.39 11.73C7.85 11.67 7.28 11.73 6.77 11.89C6.53 11.97 6.32 12.07 6.13 12.13L6.1 12.06C6.45 11.89 6.89 11.73 7.33 11.66C8.05 11.54 8.23 11.65 8.82 11.71C8.8 11.7 8.84 11.72 8.78 11.69C8.69 11.65 8.58 11.64 8.49 11.63C8.11 11.57 7.71 11.57 7.34 11.62C6.63 11.73 6.25 11.97 6.07 12L6.04 11.94C6.12 11.86 6.6 11.7 6.76 11.66C7.32 11.49 7.96 11.44 8.55 11.55C8.94 11.62 9.09 11.72 9.33 11.78C9.27 11.71 9.08 11.66 8.96 11.62C8 11.32 6.89 11.44 6.02 11.9C5.92 11.84 6.05 11.85 5.72 11.79C5.61 11.76 5.49 11.74 5.37 11.73L5.44 12.01C5.53 12.01 5.67 11.98 5.75 11.99L5.71 12.36C5.78 12.56 5.82 12.73 5.78 12.96C5.76 13.12 5.54 13.19 5.39 13.25C5.06 13.38 4.71 13.48 4.35 13.57C4.16 13.61 3.87 13.72 3.93 13.42C3.97 13.25 4.11 13.11 4.21 13.03C4.34 12.93 4.59 12.96 4.81 12.95C5.03 12.94 5.25 12.93 5.47 12.92C5.49 12.81 5.49 12.7 5.46 12.6C5.42 12.48 5.37 12.46 5.31 12.4C5.26 12.29 5.13 12.17 5.06 12.06L5.36 12.03C5.35 11.94 5.31 11.8 5.27 11.73C4.9 11.71 4.84 11.88 4.72 12.01C4.7 11.87 4.72 11.55 4.71 11.39C4.67 10.51 4.48 9.71001 4.03 8.96001C3.92 8.78001 3.95 8.84001 4 8.45001C4.04 8.21001 4.08 8.09001 4.03 7.92001C4.13 7.87001 4.83 7.75001 5 7.72001C6.29 7.50001 7.02 7.56001 8.32 7.58001L8.31 7.30001C8.22 7.31001 8.07 7.37001 7.98 7.41001C7.8 7.47001 7.84 7.45001 7.67 7.37001C6.49 6.83001 5.35 6.60001 4.06 7.00001C3.84 7.07001 3.63 7.15001 3.43 7.24001L2.83 7.51001C2.93 6.78001 3.36 6.00001 3.7 5.53001C3.88 5.29001 3.95 5.23001 4.12 5.05001C4.15 5.01001 4.17 4.99001 4.2 4.96001C4.26 4.89001 4.32 4.85001 4.38 4.79001C4.58 4.59001 4.95 4.32001 5.19 4.16001C5.78 3.79001 6.41 3.51001 7.18 3.28001C7.54 3.17001 7.97 3.08001 8.36 3.02001C8.71 2.97001 9.28 2.93001 9.47 2.72001C9.49 2.67001 9.46 1.67001 9.49 1.59001C9.56 1.36001 9.85 1.39001 9.9 1.60001C9.92 1.67001 9.91 2.67001 9.91 2.70001C10.03 2.92001 10.75 2.97001 11.06 3.01001C12.91 3.29001 14.66 4.05001 15.81 5.48001C16.16 5.92001 16.61 6.72001 16.7 7.46001C16.61 7.43001 16.49 7.35001 16.4 7.31001C15.62 6.93001 14.75 6.73001 13.87 6.79001C13.18 6.84001 12.42 7.07001 11.85 7.39001C11.57 7.55001 11.67 7.41001 11.21 7.30001V7.61001C11.98 7.59001 12.7 7.55001 13.47 7.62001C14.14 7.67001 14.87 7.79001 15.48 7.94001C15.44 8.09001 15.43 8.04001 15.45 8.23001C15.52 9.24001 15.13 9.01001 15.12 9.49001C15.09 10.18 14.7 10.7 14.65 10.94C14.58 11.27 14.81 11.54 14.76 12.06C14.69 11.98 14.69 11.91 14.59 11.85C14.5 11.8 14.4 11.78 14.28 11.78L14.22 12.01ZM1.48 12.32C1.55 15.15 2.48 17.71 3.82 19.51C4.09 19.87 4.25 20.03 4.5 20.34C4.56 20.4 4.6 20.43 4.65 20.49L5.18 21C5.46 21.25 6 21.63 6.3 21.81C7.32 22.43 8.65 22.86 10.11 22.78C11.95 22.67 13.42 21.82 14.62 20.67C14.9 20.4 15.22 20.05 15.46 19.73C17.13 17.56 18.06 14.74 17.97 11.53C17.88 8.26001 16.62 5.00001 14.5 3.08001L14.18 2.79001C13.92 2.55001 13.45 2.23001 13.15 2.04001C12.13 1.42001 10.8 0.990006 9.34 1.08001C6.52 1.25001 4.52 3.22001 3.49 4.81001C2.18 6.84001 1.41 9.38001 1.48 12.32Z" fill="#FEFEFE"/>
<path fill-rule="evenodd" clip-rule="evenodd" d="M11.73 3.52001C11.71 3.56001 11.71 3.56001 11.68 3.59001L10.96 3.14001C10.86 3.22001 10.76 3.27001 10.65 3.35001L11.25 3.96001L11.2 4.02001C11.17 3.99001 11.15 3.97001 11.12 3.95001L10.58 3.39001C10.42 3.44001 10.3 3.50001 10.11 3.54001C10.17 3.65001 10.63 4.21001 10.68 4.31001L10.62 4.34001C10.58 4.32001 10.21 3.82001 10.17 3.77001C10.13 3.71001 10.05 3.61001 10.03 3.56001L9.76 3.58001C9.75 3.77001 9.76 3.97001 9.76 4.16001C9.76 4.26001 9.76 4.36001 9.76 4.46001C9.76 4.74001 9.8 4.70001 9.68 4.70001L9.67 3.59001L9.31 3.55001C9.22 3.69001 9.12 3.81001 9.02 3.95001L8.72 4.35001C8.69 4.33001 8.7 4.34001 8.66 4.30001C8.7 4.22001 9.18 3.61001 9.22 3.54001L8.77 3.37001C8.64 3.46001 8.22 3.94001 8.13 3.97001L8.08 3.91001C8.15 3.86001 8.66 3.37001 8.69 3.31001C8.59 3.28001 8.52 3.21001 8.43 3.16001C8.32 3.21001 8.16 3.34001 8.06 3.40001C7.98 3.45001 7.76 3.61001 7.69 3.64001L7.65 3.58001C7.7 3.53001 7.76 3.51001 7.81 3.47001L8.17 3.23001C8.22 3.20001 8.29 3.15001 8.34 3.12001C8.1 3.12001 7.58 3.25001 7.35 3.32001C6.44 3.57001 5.59 3.95001 4.88 4.48001C4.16 5.02001 3.63 5.64001 3.25 6.46001C3.17 6.63001 2.96 7.17001 2.95 7.36001C3.49 7.15001 3.53 7.07001 4.22 6.87001C4.71 6.73001 5.27 6.68001 5.8 6.74001C6.32 6.79001 6.78 6.93001 7.22 7.10001C7.31 7.13001 7.81 7.36001 7.84 7.36001C7.88 7.36001 8.4 7.17001 8.5 7.15001L8.49 5.01001C8.56 5.04001 8.82 5.25001 8.9 5.31001C8.95 5.34001 9.29 5.56001 9.3 5.63001V6.97001C9.41 6.98001 9.61 6.95001 9.74 6.95001C9.84 6.95001 10.14 6.98001 10.21 6.97001V5.61001C10.27 5.55001 10.53 5.37001 10.61 5.31001C10.7 5.24001 10.95 5.04001 11.02 5.01001L11.01 7.15001L11.57 7.34001C11.66 7.37001 11.67 7.40001 11.76 7.35001C13.12 6.61001 14.6 6.48001 16.05 7.06001C16.14 7.10001 16.23 7.13001 16.31 7.17001C16.39 7.21001 16.5 7.28001 16.58 7.30001C16.5 6.73001 16.1 6.00001 15.82 5.64001C15.1 4.69001 14.16 4.04001 13 3.60001C12.56 3.43001 11.54 3.12001 11.07 3.10001L11.73 3.52001Z" fill="#E52129"/>
<path fill-rule="evenodd" clip-rule="evenodd" d="M9.33999 0.750001C10.9 0.660001 12.18 1.11 13.28 1.75C13.54 1.9 13.8 2.08 14.02 2.25C14.48 2.61 14.92 3.01 15.3 3.45C16.32 4.61 17.02 5.86 17.54 7.36C17.98 8.64 18.24 10.07 18.27 11.53C18.35 14.56 17.53 17.2 16.18 19.27C15.1 20.91 13.05 22.93 10.12 23.1C8.56999 23.2 7.25999 22.75 6.16999 22.11C5.71999 21.84 5.11999 21.39 4.75999 21.03C4.65999 20.93 4.55999 20.84 4.44999 20.73L4.14999 20.41C3.13999 19.26 2.41999 17.98 1.91999 16.5C0.559992 12.5 1.07999 7.91 3.26999 4.58C4.34999 2.94 6.40999 0.920001 9.33999 0.750001ZM9.47999 0.410001C7.58999 0.480001 5.97999 1.29 4.74999 2.38C4.10999 2.95 3.87999 3.22 3.35999 3.88C3.26999 4 3.17999 4.13 3.08999 4.26C0.0199918 8.65 0.0899918 15.59 3.29999 19.89C3.38999 20.01 3.47999 20.13 3.56999 20.25L4.07999 20.84C4.10999 20.87 4.13999 20.89 4.16999 20.92C4.28999 21.04 4.66999 21.43 4.82999 21.54L5.17999 21.83C6.51999 22.83 8.02999 23.51 9.97999 23.44C11.49 23.39 12.84 22.83 13.81 22.16C19.45 18.3 20.1 8.82 15.88 3.61L14.8 2.46C14.74 2.41 14.69 2.36 14.63 2.31L14.28 2.03C12.96 1.04 11.4 0.340001 9.47999 0.410001Z" fill="#332C2B"/>
<path fill-rule="evenodd" clip-rule="evenodd" d="M9.41999 21.17C9.69999 20.98 9.86999 21.07 10.1 21.15C10.08 21.23 9.91999 21.54 9.86999 21.65C9.81999 21.75 9.85999 21.76 9.96999 21.95C10.01 22.03 10.03 22.03 9.98999 22.11C9.93999 22.21 9.87999 22.36 9.81999 22.43C9.81999 22.34 9.79999 22.21 9.83999 22.16C9.98999 21.94 9.72999 21.84 9.64999 21.97C9.57999 22.1 9.69999 22.13 9.69999 22.21L9.68999 22.43C9.63999 22.36 9.56999 22.21 9.52999 22.12C9.47999 22.02 9.52999 21.98 9.63999 21.8C9.67999 21.74 9.70999 21.72 9.66999 21.65C9.60999 21.54 9.44999 21.26 9.41999 21.17ZM9.55999 20.92C9.51999 20.98 9.46999 21.04 9.38999 21.09C9.38999 20.95 9.37999 20.89 9.50999 20.85C9.66999 20.81 9.66999 20.84 9.76999 20.91C9.81999 20.88 9.88999 20.76 10.13 20.9L10.12 21.07C10.06 21.03 10.04 20.95 9.97999 20.91C9.86999 20.95 9.94999 21 9.78999 21C9.58999 21 9.66999 20.97 9.55999 20.92ZM9.45999 20.8L9.38999 20.83L9.37999 20.4L9.45999 20.41L9.75999 20.44H9.91999C9.96999 20.42 10.06 20.42 10.12 20.42L10.13 20.83L10.05 20.8L9.91999 20.77L9.74999 20.76H9.65999L9.45999 20.8ZM9.46999 11.3C9.51999 11.26 9.57999 11.24 9.64999 11.23L9.75999 11.22L9.91999 11.25C10.11 11.33 10.09 11.34 10.09 11.56L10.11 18.79L9.92999 18.8L9.62999 18.79L9.46999 18.77H9.38999L9.39999 11.33L9.46999 11.3ZM8.41999 17.76H8.52999V17.85H8.41999V17.76ZM10.18 17.93V17.85L11.06 17.84V17.7L10.18 17.69V17.62C10.27 17.6 11.07 17.6 11.14 17.62V17.93H10.18ZM9.31999 17.67C9.26999 17.7 8.47999 17.69 8.37999 17.68V17.62C8.39999 17.62 9.25999 17.59 9.32999 17.63L9.31999 17.67ZM9.31999 18.75C8.87999 18.71 8.27999 18.35 7.99999 18.15C7.82999 18.03 7.86999 18.08 7.84999 17.82C7.81999 17.49 7.76999 16.76 7.79999 16.48L8.15999 17.59H8.28999V18.02H9.31999V18.75ZM8.22999 17.51C8.17999 17.43 8.12999 17.23 8.09999 17.13C8.05999 17 8.01999 16.88 7.97999 16.75C7.86999 16.41 7.75999 16.22 7.85999 15.97L8.30999 17.38H9.32999L9.31999 17.51H8.22999ZM8.29999 15.73L8.63999 15.69L9.32999 15.66L9.31999 16.36L9.32999 16.71V17.3H8.36999C8.31999 17.09 7.91999 15.94 7.93999 15.87C8.00999 15.8 8.15999 15.75 8.29999 15.73ZM7.70999 16.43C7.70999 16.7 7.70999 16.95 7.72999 17.22C7.73999 17.43 7.77999 17.78 7.76999 17.97C7.62999 17.91 7.64999 17.85 7.64999 17.67C7.63999 17.24 7.60999 16.92 7.62999 16.47C7.64999 16.2 7.65999 15.84 7.85999 15.72C8.02999 15.62 8.42999 15.55 8.66999 15.54L9.17999 15.51C9.19999 15.51 9.24999 15.5 9.26999 15.5L9.32999 15.52C9.31999 15.59 9.31999 15.58 9.23999 15.58H8.83999C8.69999 15.64 8.31999 15.59 7.98999 15.74C7.72999 15.86 7.70999 16.11 7.70999 16.43ZM9.32999 13.83V14.18V15.42L8.57999 15.46L8.23999 15.51C8.08999 15.54 7.98999 15.57 7.84999 15.62C7.82999 15.6 7.53999 14.69 7.52999 14.62L8.41999 13.95C8.50999 13.88 9.24999 13.32 9.32999 13.28V13.83ZM10.16 13.83V13.26C10.23 13.31 10.32 13.38 10.39 13.43L11.98 14.61C11.98 14.71 11.82 15.15 11.77 15.29C11.71 15.51 11.63 15.73 11.56 15.96L11.14 17.3L10.17 17.29V16.72V16.37L10.16 14.17V13.83ZM3.44999 13.87L4.84999 13.8C5.03999 14.3 5.82999 15.75 6.14999 16.21C6.88999 17.28 8.00999 18.81 9.70999 18.88C10.52 18.91 11.11 18.65 11.63 18.31C12.13 17.97 12.51 17.53 12.87 17.06C13.42 16.34 14.02 15.12 14.36 14.21C14.38 14.16 14.51 13.78 14.56 13.77H16.07C15.96 14.25 15.38 15.65 15.18 16.08C14.85 16.8 14.41 17.54 13.98 18.09C13.8 18.31 13.69 18.43 13.52 18.62C12.95 19.27 12.07 19.87 11.2 20.13C10.81 20.25 10.24 20.37 9.79999 20.35C6.72999 20.25 4.87999 17.41 3.88999 15.01C3.81999 14.85 3.44999 13.99 3.44999 13.87ZM7.27999 14.54C7.32999 14.48 8.19999 13.85 8.28999 13.78C8.33999 13.74 9.25999 13.05 9.32999 13.02V13.11C9.32999 13.19 9.28999 13.21 9.22999 13.24L8.87999 13.51C8.75999 13.6 7.49999 14.54 7.42999 14.57C7.44999 14.76 7.71999 15.43 7.76999 15.67C7.73999 15.7 7.69999 15.74 7.66999 15.77L7.27999 14.54ZM12.08 14.57C12 14.54 10.76 13.6 10.63 13.51C10.56 13.45 10.48 13.39 10.4 13.33C10.32 13.27 10.23 13.19 10.16 13.16V13L10.68 13.38C10.81 13.48 12.18 14.48 12.23 14.54C12.23 14.56 11.33 17.43 11.29 17.51H10.18V17.38H11.2C11.26 17.15 11.35 16.9 11.42 16.68L11.87 15.28C11.91 15.12 12.07 14.71 12.08 14.57ZM4.79999 11.77C4.78999 11.06 4.72999 10.47 4.52999 9.83001C4.43999 9.55001 4.31999 9.29001 4.18999 9.06001C4.03999 8.78001 4.02999 8.89001 4.05999 8.65001C4.07999 8.49001 4.09999 8.33001 4.12999 8.18001C4.21999 8.31001 5.34999 10.6 5.46999 10.84C5.54999 11.01 5.86999 11.62 5.90999 11.74C5.41999 11.65 5.23999 11.56 4.79999 11.77ZM13.6 11.79C13.63 11.69 14.41 10.16 14.48 10.01C14.63 9.71001 14.77 9.42001 14.92 9.12001C14.98 9.00001 15.32 8.30001 15.36 8.25001C15.41 8.69001 15.36 8.87001 15.15 9.15001C15.03 9.29001 15.05 9.39001 15.03 9.60001C15.01 9.75001 14.97 9.92001 14.93 10.05C14.81 10.4 14.64 10.69 14.59 10.85C14.46 11.21 14.69 11.49 14.68 11.81C14.49 11.71 14.41 11.68 14.15 11.7C13.95 11.71 13.79 11.76 13.6 11.79ZM10.37 11.33C10.48 11.3 10.44 11.25 10.44 11.12C10.44 10.93 10.45 10.74 10.45 10.55C10.45 10.17 10.45 9.78001 10.45 9.40001C10.45 9.16001 10.42 9.01001 10.51 8.87001C10.58 8.74001 10.65 8.63001 10.72 8.51001C10.87 8.27001 11 8.03001 11.15 7.79001C11.23 7.65001 11.18 7.69001 11.63 7.68001C12.61 7.64001 13.4 7.65001 14.39 7.81001C14.72 7.86001 15.04 7.94001 15.37 8.00001L13.47 11.81C13.47 11.81 12.91 11.59 12.73 11.54C11.97 11.33 11.31 11.34 10.56 11.55C10.47 11.58 10.28 11.66 10.21 11.67L10.17 11.4L10.37 11.33ZM4.14999 7.98001C4.31999 7.88001 5.78999 7.69001 6.09999 7.67001C6.64999 7.63001 7.17999 7.63001 7.72999 7.65001C8.42999 7.67001 8.27999 7.58001 8.50999 7.99001L8.99999 8.90001C9.04999 8.98001 9.03999 9.02001 9.03999 9.14001L9.05999 11.32C9.10999 11.34 9.15999 11.35 9.19999 11.36C9.22999 11.37 9.24999 11.37 9.26999 11.38L9.33999 11.42L9.30999 11.65C9.21999 11.64 8.87999 11.49 8.53999 11.43C7.94999 11.32 7.33999 11.36 6.76999 11.52C6.44999 11.61 6.17999 11.75 6.04999 11.79L4.14999 7.98001ZM10.24 11.28C10.23 11.08 10.25 8.97001 10.27 8.91001C10.28 8.89001 10.38 8.76001 10.4 8.73001C10.53 8.55001 10.64 8.38001 10.75 8.18001C10.82 8.06001 10.89 7.92001 10.95 7.78001C11 7.66001 11 7.68001 11 7.53001C11 7.43001 11 7.33001 11.01 7.23001L11.12 7.28001C11.13 7.38001 11.12 7.48001 11.12 7.59001C11.12 7.70001 11.09 7.72001 11.04 7.80001C10.97 7.92001 10.9 8.04001 10.82 8.17001L10.38 8.91001C10.34 9.00001 10.36 10.96 10.36 11.24L10.24 11.28ZM8.50999 7.24001C8.50999 7.53001 8.46999 7.58001 8.56999 7.79001C8.61999 7.92001 8.69999 8.07001 8.76999 8.19001C8.86999 8.37001 8.99999 8.59001 9.11999 8.75001C9.13999 8.78001 9.22999 8.89001 9.23999 8.92001C9.25999 9.00001 9.28999 11.14 9.26999 11.29L9.14999 11.26C9.10999 10.96 9.15999 9.06001 9.10999 8.92001C9.08999 8.87001 9.02999 8.77001 8.99999 8.72001C8.96999 8.65001 8.93999 8.59001 8.89999 8.53001C8.82999 8.40001 8.75999 8.28001 8.68999 8.15001C8.42999 7.64001 8.38999 7.74001 8.38999 7.26001L8.50999 7.24001ZM9.30999 7.07001C9.40999 7.02001 9.61999 7.04001 9.74999 7.03001L10.21 7.07001C10.2 7.30001 9.84999 7.47001 9.74999 7.47001C9.65999 7.47001 9.29999 7.30001 9.30999 7.07001ZM9.32999 9.14001C9.32999 8.92001 9.35999 8.93001 9.25999 8.79001C9.00999 8.46001 8.78999 8.09001 8.61999 7.70001C8.55999 7.58001 8.58999 7.03001 8.58999 6.85001C8.57999 6.30001 8.56999 5.73001 8.56999 5.18001C8.61999 5.20001 8.73999 5.29001 8.78999 5.33001C8.85999 5.38001 9.19999 5.62001 9.20999 5.67001L9.21999 6.80001C9.21999 7.10001 9.18999 7.23001 9.38999 7.38001C9.49999 7.47001 9.60999 7.54001 9.75999 7.55001C9.82999 7.55001 9.84999 7.54001 9.90999 7.51001C10.42 7.30001 10.29 6.97001 10.3 6.39001C10.3 6.14001 10.29 5.89001 10.3 5.65001C10.33 5.61001 10.89 5.20001 10.94 5.18001C10.95 5.74001 10.93 6.32001 10.92 6.88001C10.92 7.07001 10.95 7.57001 10.89 7.71001C10.73 8.07001 10.48 8.49001 10.25 8.80001C10.21 8.86001 10.18 8.87001 10.18 8.96001C10.16 9.70001 10.16 10.54 10.15 11.29C10.07 11.28 9.94999 11.16 9.75999 11.16C9.56999 11.15 9.48999 11.23 9.35999 11.28C9.32999 10.63 9.33999 9.82001 9.32999 9.14001ZM11.07 3.10001C11.54 3.12001 12.56 3.43001 13 3.60001C14.16 4.04001 15.1 4.69001 15.82 5.64001C16.1 6.00001 16.5 6.73001 16.58 7.30001C16.5 7.28001 16.39 7.21001 16.31 7.17001C16.23 7.13001 16.14 7.10001 16.05 7.06001C14.6 6.48001 13.12 6.61001 11.76 7.35001C11.67 7.40001 11.66 7.37001 11.57 7.34001L11.01 7.15001L11.02 5.01001C10.95 5.04001 10.7 5.24001 10.61 5.31001C10.53 5.37001 10.27 5.55001 10.21 5.61001V6.97001C10.14 6.98001 9.83999 6.95001 9.73999 6.95001C9.60999 6.95001 9.40999 6.98001 9.29999 6.97001V5.63001C9.28999 5.56001 8.94999 5.34001 8.89999 5.31001C8.81999 5.25001 8.55999 5.04001 8.48999 5.01001L8.49999 7.15001C8.39999 7.17001 7.87999 7.36001 7.83999 7.36001C7.80999 7.36001 7.30999 7.13001 7.21999 7.10001C6.77999 6.93001 6.31999 6.79001 5.79999 6.74001C5.26999 6.68001 4.70999 6.73001 4.21999 6.87001C3.52999 7.07001 3.48999 7.15001 2.94999 7.36001C2.95999 7.17001 3.16999 6.63001 3.24999 6.46001C3.62999 5.64001 4.15999 5.02001 4.87999 4.48001C5.58999 3.95001 6.43999 3.57001 7.34999 3.32001C7.57999 3.25001 8.09999 3.12001 8.33999 3.12001C8.28999 3.15001 8.21999 3.20001 8.16999 3.23001L7.80999 3.47001C7.75999 3.51001 7.69999 3.53001 7.64999 3.58001L7.68999 3.64001C7.75999 3.61001 7.97999 3.45001 8.05999 3.40001C8.15999 3.34001 8.31999 3.21001 8.42999 3.16001C8.51999 3.21001 8.58999 3.28001 8.68999 3.31001C8.65999 3.37001 8.14999 3.86001 8.07999 3.91001L8.12999 3.97001C8.21999 3.94001 8.63999 3.46001 8.76999 3.37001L9.21999 3.54001C9.17999 3.61001 8.69999 4.22001 8.65999 4.30001C8.69999 4.34001 8.68999 4.33001 8.71999 4.35001L9.01999 3.95001C9.11999 3.81001 9.21999 3.69001 9.30999 3.55001L9.66999 3.59001L9.67999 4.70001C9.79999 4.70001 9.75999 4.74001 9.75999 4.46001C9.75999 4.36001 9.75999 4.26001 9.75999 4.16001C9.75999 3.97001 9.74999 3.77001 9.75999 3.58001L10.03 3.56001C10.05 3.61001 10.13 3.71001 10.17 3.77001C10.21 3.82001 10.58 4.32001 10.62 4.34001L10.68 4.31001C10.63 4.21001 10.17 3.65001 10.11 3.54001C10.3 3.50001 10.42 3.44001 10.58 3.39001L11.12 3.95001C11.15 3.97001 11.17 3.99001 11.2 4.02001L11.25 3.96001L10.65 3.35001C10.76 3.27001 10.86 3.22001 10.96 3.14001L11.68 3.59001C11.71 3.56001 11.71 3.56001 11.73 3.52001L11.07 3.10001ZM9.55999 2.76001C9.55999 2.53001 9.55999 2.29001 9.55999 2.06001C9.55999 1.89001 9.49999 1.51001 9.69999 1.51001C9.73999 1.51001 9.77999 1.54001 9.79999 1.58001C9.82999 1.62001 9.82999 1.66001 9.82999 1.72001V2.76001C9.89999 2.81001 9.93999 2.86001 10.04 2.90001C10.23 2.99001 10.68 3.05001 10.89 3.08001C10.86 3.16001 10.52 3.32001 10.39 3.37001C10.19 3.45001 9.94999 3.50001 9.70999 3.50001C9.31999 3.50001 8.73999 3.33001 8.49999 3.10001C8.62999 3.02001 9.22999 3.07001 9.55999 2.76001ZM5.35999 12.03L5.43999 12.01L5.36999 11.73C5.48999 11.74 5.60999 11.76 5.71999 11.79C6.04999 11.85 5.91999 11.84 6.01999 11.9C6.88999 11.44 7.99999 11.32 8.95999 11.62C9.07999 11.66 9.26999 11.71 9.32999 11.78C9.08999 11.72 8.93999 11.62 8.54999 11.55C7.95999 11.44 7.31999 11.49 6.75999 11.66C6.59999 11.7 6.11999 11.86 6.03999 11.94L6.06999 12C6.24999 11.97 6.62999 11.73 7.33999 11.62C7.70999 11.57 8.10999 11.57 8.48999 11.63C8.57999 11.64 8.68999 11.65 8.77999 11.69C8.83999 11.72 8.79999 11.7 8.81999 11.71C8.22999 11.65 8.04999 11.54 7.32999 11.66C6.88999 11.73 6.44999 11.89 6.09999 12.06L6.12999 12.13C6.31999 12.07 6.52999 11.97 6.76999 11.89C7.27999 11.73 7.84999 11.67 8.38999 11.73C8.56999 11.75 8.99999 11.82 9.11999 11.9C8.89999 11.87 8.71999 11.79 8.36999 11.75C7.83999 11.7 7.29999 11.78 6.79999 11.93C6.68999 11.96 6.57999 12 6.46999 12.05L6.16999 12.18V12.19C6.20999 12.3 6.27999 12.22 6.47999 12.14C7.24999 11.83 8.15999 11.72 8.96999 11.95C9.05999 11.98 9.27999 12.02 9.32999 12.09V12.91C9.20999 13.02 7.92999 13.94 7.72999 14.1C7.63999 14.16 7.54999 14.23 7.45999 14.3C7.37999 14.35 7.24999 14.46 7.17999 14.49C7.22999 14.81 7.64999 15.78 7.60999 15.97C7.47999 16.56 7.55999 17.18 7.56999 17.79C7.52999 17.77 7.39999 17.63 7.35999 17.59C7.31999 17.55 7.28999 17.53 7.24999 17.49C6.80999 17.04 6.39999 16.48 6.06999 15.92C5.84999 15.57 5.64999 15.22 5.44999 14.84C5.30999 14.57 5.15999 14.29 5.02999 14C4.99999 13.94 4.92999 13.76 4.88999 13.71L3.32999 13.79C3.37999 14.11 4.10999 15.72 4.24999 16C5.07999 17.69 6.27999 19.32 8.06999 20.06C8.49999 20.23 8.83999 20.3 9.31999 20.39C9.31999 20.54 9.30999 21.04 9.33999 21.16C9.37999 21.31 9.53999 21.52 9.60999 21.67C9.62999 21.73 9.59999 21.74 9.56999 21.79C9.53999 21.84 9.52999 21.87 9.49999 21.91C9.40999 22.06 9.40999 22.02 9.48999 22.17C9.54999 22.3 9.67999 22.6 9.74999 22.69C9.82999 22.62 9.95999 22.31 10.02 22.2C10.09 22.06 10.11 22.08 10.03 21.94C9.98999 21.87 9.89999 21.75 9.91999 21.67C9.97999 21.51 10.12 21.32 10.17 21.16C10.23 21 10.16 20.6 10.19 20.42C11.99 20.2 13.14 19.33 14.15 18C14.94 16.95 15.55 15.58 15.99 14.29C16.04 14.14 16.16 13.82 16.18 13.68H14.5C14.45 13.69 14.35 14.02 14.32 14.08C13.79 15.49 12.99 17.11 11.83 18.05C11.46 18.35 10.85 18.73 10.18 18.78V18.02H11.23V17.59H11.35L12.34 14.5C12.25 14.46 12.14 14.36 12.06 14.3C11.96 14.23 11.87 14.16 11.79 14.1C11.6 13.96 11.43 13.83 11.24 13.7C11.11 13.6 10.27 12.95 10.16 12.89L10.15 12.12C10.27 12.09 10.39 12.03 10.51 12C10.64 11.97 10.77 11.94 10.9 11.92C11.59 11.8 12.31 11.91 12.96 12.15C13.08 12.2 13.19 12.25 13.31 12.29L13.35 12.23C13.04 12.03 12.28 11.84 11.91 11.8C11.61 11.77 11.31 11.77 11.02 11.81C10.66 11.86 10.46 11.95 10.26 11.98C11.1 11.61 12.19 11.72 13.05 12.04C13.16 12.08 13.27 12.14 13.38 12.17L13.41 12.1C13.32 12.03 12.88 11.88 12.74 11.84C12.09 11.63 11.34 11.6 10.67 11.76C10.55 11.79 10.41 11.85 10.31 11.87C11.02 11.57 11.96 11.56 12.73 11.79C12.94 11.85 13.38 12.03 13.45 12.05L13.47 11.99C13.46 11.97 13.47 11.98 13.44 11.96L13.3 11.9C13.25 11.88 13.19 11.85 13.13 11.83C12.21 11.47 11.17 11.42 10.25 11.8C10.21 11.81 10.18 11.83 10.15 11.81C10.18 11.78 10.15 11.8 10.19 11.78C10.19 11.78 10.22 11.77 10.23 11.76C10.45 11.67 10.67 11.6 10.92 11.55C11.72 11.38 12.56 11.52 13.3 11.83L13.43 11.9C13.46 11.92 13.43 11.91 13.46 11.92C13.51 11.92 13.72 11.85 13.81 11.83C13.9 11.81 14.1 11.77 14.19 11.79L14.13 12L14.22 12.01L14.28 11.78C14.4 11.78 14.5 11.8 14.59 11.85C14.69 11.91 14.69 11.98 14.76 12.06C14.81 11.54 14.58 11.27 14.65 10.94C14.7 10.7 15.09 10.18 15.12 9.49001C15.13 9.01001 15.52 9.24001 15.45 8.23001C15.43 8.04001 15.44 8.09001 15.48 7.94001C14.87 7.79001 14.14 7.67001 13.47 7.62001C12.7 7.55001 11.98 7.59001 11.21 7.61001V7.30001C11.67 7.41001 11.57 7.55001 11.85 7.39001C12.42 7.07001 13.18 6.84001 13.87 6.79001C14.75 6.73001 15.62 6.93001 16.4 7.31001C16.49 7.35001 16.61 7.43001 16.7 7.46001C16.61 6.72001 16.16 5.92001 15.81 5.48001C14.66 4.05001 12.91 3.29001 11.06 3.01001C10.75 2.97001 10.03 2.92001 9.90999 2.70001C9.90999 2.67001 9.91999 1.67001 9.89999 1.60001C9.84999 1.39001 9.55999 1.36001 9.48999 1.59001C9.45999 1.67001 9.48999 2.67001 9.46999 2.72001C9.27999 2.93001 8.70999 2.97001 8.35999 3.02001C7.96999 3.08001 7.53999 3.17001 7.17999 3.28001C6.40999 3.51001 5.77999 3.79001 5.18999 4.16001C4.94999 4.32001 4.57999 4.59001 4.37999 4.79001C4.31999 4.85001 4.25999 4.89001 4.19999 4.96001C4.16999 4.99001 4.14999 5.01001 4.11999 5.05001C3.94999 5.23001 3.87999 5.29001 3.69999 5.53001C3.35999 6.00001 2.92999 6.78001 2.82999 7.51001L3.42999 7.24001C3.62999 7.15001 3.83999 7.07001 4.05999 7.00001C5.34999 6.60001 6.48999 6.83001 7.66999 7.37001C7.83999 7.45001 7.79999 7.47001 7.97999 7.41001C8.06999 7.37001 8.21999 7.31001 8.30999 7.30001L8.31999 7.58001C7.01999 7.56001 6.28999 7.50001 4.99999 7.72001C4.82999 7.75001 4.12999 7.87001 4.02999 7.92001C4.07999 8.09001 4.03999 8.21001 3.99999 8.45001C3.94999 8.84001 3.91999 8.78001 4.02999 8.96001C4.47999 9.71001 4.66999 10.51 4.70999 11.39C4.71999 11.55 4.69999 11.87 4.71999 12.01C4.83999 11.88 4.89999 11.71 5.26999 11.73C5.30999 11.8 5.34999 11.94 5.35999 12.03Z" fill="#332C2B"/>
<path fill-rule="evenodd" clip-rule="evenodd" d="M18.03 12.57C17.87 15.2 17.14 17.68 15.57 19.71L15.16 20.19C15.14 20.22 15.12 20.24 15.1 20.27C14.93 20.45 14.76 20.64 14.57 20.8C14.46 20.9 14.37 21 14.25 21.09C14.09 21.22 13.98 21.32 13.75 21.49C13.52 21.65 13.28 21.81 13.02 21.96C11.96 22.58 10.55 22.97 9.09 22.82C7.51 22.66 6.32 21.99 5.31 21.19C5.1 21.02 4.85 20.79 4.68 20.61C4.62 20.56 4.58 20.51 4.53 20.46C4.38 20.33 3.97 19.81 3.83 19.64C2.09 17.31 1.27 14.25 1.42 11.27C1.57 8.42 2.5 5.93 3.88 4.15C3.97 4.04 4.06 3.93 4.15 3.82L4.43 3.5C4.53 3.38 4.83 3.1 4.96 2.98C4.99 2.95 5 2.93 5.04 2.9C5.14 2.81 5.25 2.72 5.36 2.63C5.46 2.54 5.58 2.45 5.7 2.37C8.23 0.560002 11.29 0.520002 13.81 2.41C14.14 2.66 14.49 2.95 14.77 3.25L15.07 3.56C15.37 3.85 15.88 4.58 16.11 4.93C17.36 6.84 18.19 9.8 18.03 12.57ZM9.34 0.750002C6.41 0.920002 4.35 2.94 3.27 4.58C1.08 7.91 0.559999 12.5 1.92 16.5C2.42 17.98 3.14 19.26 4.15 20.41L4.45 20.73C4.56 20.84 4.66 20.93 4.76 21.03C5.12 21.39 5.72 21.84 6.17 22.11C7.26 22.75 8.57 23.2 10.12 23.1C13.05 22.93 15.1 20.91 16.18 19.27C17.53 17.2 18.35 14.56 18.27 11.53C18.24 10.07 17.98 8.64 17.54 7.36C17.02 5.86 16.32 4.61 15.3 3.45C14.92 3.01 14.48 2.61 14.02 2.25C13.8 2.08 13.54 1.9 13.28 1.75C12.18 1.11 10.9 0.660002 9.34 0.750002Z" fill="#FDFDFD"/>
<path fill-rule="evenodd" clip-rule="evenodd" d="M9.47999 0.410014C11.4 0.340014 12.96 1.04001 14.28 2.03001L14.63 2.31001C14.69 2.36001 14.74 2.41001 14.8 2.46001L15.88 3.61001C20.1 8.82001 19.45 18.3 13.81 22.16C12.84 22.83 11.49 23.39 9.97999 23.44C8.02999 23.51 6.51999 22.83 5.17999 21.83L4.82999 21.54C4.66999 21.43 4.28999 21.04 4.16999 20.92C4.13999 20.89 4.10999 20.87 4.07999 20.84L3.56999 20.25C3.47999 20.13 3.38999 20.01 3.29999 19.89C0.0899924 15.59 0.0199924 8.65001 3.08999 4.26001C3.17999 4.13001 3.26999 4.00001 3.35999 3.88001C3.87999 3.22001 4.10999 2.95001 4.74999 2.38001C5.97999 1.29001 7.58999 0.480014 9.47999 0.410014ZM9.20999 0.180014C6.11999 0.410014 3.95999 2.52001 2.80999 4.25001C1.37999 6.42001 0.509992 9.23001 0.609992 12.43C0.719992 15.73 1.84999 18.52 3.52999 20.56L4.14999 21.24C4.36999 21.47 4.59999 21.66 4.83999 21.86C5.14999 22.13 5.64999 22.46 5.99999 22.67C7.15999 23.34 8.59999 23.79 10.23 23.67C13.33 23.45 15.48 21.34 16.63 19.61C18.07 17.45 18.94 14.6 18.84 11.42C18.73 8.31001 17.68 5.56001 16.2 3.64001C16.1 3.52001 16.01 3.41001 15.91 3.28001L15.61 2.94001C15.44 2.73001 15.1 2.45001 14.95 2.28001C14.85 2.18001 14.34 1.78001 14.23 1.70001C13.99 1.53001 13.72 1.34001 13.44 1.18001C12.26 0.520014 10.86 0.060014 9.20999 0.180014Z" fill="#FDFDFD"/>
<path fill-rule="evenodd" clip-rule="evenodd" d="M10.03 19.03C10.09 19.01 10.18 19 10.22 19.01L10.7 20.15L10.51 20.16L10.41 19.91C10.35 19.91 10.08 19.92 10.03 19.96L9.99 20.22L9.8 20.24L10.03 19.03ZM8.94 19.7C8.96 19.83 8.96 19.92 9.08 19.96C9.21 19.99 9.32 19.93 9.32 19.81C9.32 19.64 9.01 19.62 8.93 19.41C8.84 19.19 8.99 18.95 9.2 18.94C9.48 18.93 9.6 19.1 9.57 19.36L9.4 19.34C9.39 19.2 9.36 19.12 9.2 19.13C9.06 19.14 9.05 19.28 9.15 19.35C9.3 19.47 9.51 19.5 9.5 19.78C9.49 20.01 9.34 20.2 9.09 20.16C8.83 20.12 8.76 19.96 8.77 19.68L8.94 19.7ZM8.35 18.98C8.39 18.92 8.48 18.79 8.54 18.74L8.71 18.8L8.63 20.04L8.46 19.97L8.48 19.69L8.12 19.57C8.1 19.6 7.99 19.76 7.96 19.79C7.93 19.78 7.9 19.77 7.87 19.76L7.79 19.72L8.35 18.98ZM11.14 18.77L11.49 19.9L11.33 19.95C11.2 19.84 10.83 19.39 10.73 19.33L10.96 20.07L10.81 20.11L10.45 18.98L10.62 18.93L11.22 19.57L10.98 18.81L11.14 18.77ZM11.17 18.74C11.33 18.69 11.52 18.49 11.72 18.53C12.02 18.59 12.39 19.21 12.22 19.48C12.16 19.57 12.1 19.59 12 19.65C11.93 19.69 11.83 19.75 11.75 19.78C11.73 19.7 11.65 19.6 11.61 19.52C11.56 19.43 11.51 19.35 11.47 19.27C11.41 19.17 11.2 18.82 11.17 18.74ZM7.85 18.36C7.97 18.41 8.35 18.68 8.47 18.72C8.44 18.8 8.4 18.83 8.38 18.9L8.14 18.76C8.03 18.9 7.68 19.54 7.6 19.6L7.47 19.52C7.48 19.45 7.77 19.01 7.85 18.88C7.89 18.82 7.95 18.74 7.98 18.66L7.76 18.52L7.85 18.36ZM11.94 18.28C12.01 18.33 12.08 18.44 12.13 18.51L12.68 19.21C12.64 19.25 12.59 19.29 12.55 19.31C12.49 19.25 12.41 19.14 12.36 19.08C12.3 19 12.24 18.93 12.17 18.85C12.11 18.76 11.83 18.43 11.81 18.37C11.84 18.35 11.9 18.3 11.94 18.28ZM6.93 19.15C6.95 19.1 7.23 18.75 7.29 18.67L7.64 18.2C7.69 18.22 7.75 18.27 7.78 18.3C7.72 18.4 7.17 19.1 7.07 19.25C7.02 19.23 6.97 19.18 6.93 19.15ZM12.24 18.02C12.33 17.94 12.52 17.7 12.67 17.67C13 17.62 13.52 18.12 13.45 18.44C13.43 18.56 13.15 18.83 13.1 18.86C13.04 18.82 12.24 18.03 12.24 18.02ZM6.64 18.37C6.61 18.48 6.52 18.57 6.63 18.67C6.7 18.75 6.83 18.77 6.9 18.67C7.02 18.51 6.69 18.35 6.78 18.07C6.84 17.89 7.08 17.73 7.29 17.87C7.57 18.06 7.43 18.34 7.35 18.39C7.31 18.37 7.25 18.33 7.22 18.3C7.24 18.18 7.33 18.12 7.17 18.02C7.06 17.96 6.94 18.04 6.99 18.17C7.06 18.37 7.25 18.5 7.06 18.75C6.73 19.2 6.13 18.7 6.5 18.29L6.64 18.37ZM6.57 17.14L6.8 17.38C6.92 17.53 7.1 17.71 6.75 17.95C6.6 18.05 6.53 17.99 6.4 17.94C6.38 18.21 6.29 18.29 6.22 18.51C6.17 18.48 6.08 18.39 6.08 18.35C6.08 18.33 6.14 18.18 6.16 18.14C6.27 17.87 6.29 17.86 6.17 17.72C6.05 17.8 5.85 18.01 5.79 18.04C5.75 18.01 5.7 17.96 5.67 17.92L6.57 17.14ZM13.48 18.09C13.46 18.08 13.45 18.07 13.43 18.06C13.4 18.04 13.42 18.06 13.4 18.02C13.42 17.97 13.45 17.94 13.46 17.89C13.54 17.92 13.57 17.96 13.68 17.95C13.77 17.84 13.72 17.8 13.63 17.72L12.97 17.21C13 17.17 13.04 17.11 13.09 17.08C13.22 17.2 13.64 17.48 13.8 17.64C14.11 17.94 13.8 18.28 13.48 18.09ZM5.18 17.23C5.27 17.15 6.1 16.57 6.18 16.55C6.23 16.63 6.3 16.73 6.37 16.81C6.42 16.88 6.51 17 6.55 17.07C6.5 17.12 6.46 17.15 6.4 17.18L6.17 16.88C6.14 16.84 6.14 16.82 6.09 16.8C6.04 16.86 5.93 16.89 5.89 16.96C5.96 17.08 6.09 17.2 6.14 17.33C6.08 17.35 6.05 17.4 5.98 17.43C5.95 17.37 5.89 17.3 5.85 17.25C5.81 17.19 5.77 17.12 5.72 17.07C5.66 17.1 5.5 17.21 5.45 17.26C5.53 17.39 5.67 17.54 5.74 17.67C5.7 17.7 5.62 17.76 5.58 17.77C5.46 17.59 5.3 17.41 5.18 17.23ZM13.13 17.02C13.18 16.89 13.42 16.58 13.47 16.46C13.54 16.48 13.59 16.52 13.64 16.55C13.59 16.69 13.44 16.84 13.39 16.97C13.46 17 13.55 17.06 13.62 17.1C13.67 17.06 13.83 16.8 13.85 16.73C13.91 16.75 13.99 16.8 14.03 16.83L13.8 17.21C13.83 17.24 14.03 17.36 14.08 17.38C14.13 17.32 14.28 17.05 14.35 16.96L14.52 17.06L14.15 17.63C14.05 17.58 13.31 17.11 13.13 17.02ZM5.75 15.83L5.84 15.99C5.73 16.12 5.23 16.55 5.19 16.63L6.09 16.39C6.11 16.44 6.16 16.49 6.15 16.54C6.11 16.57 5.09 16.84 4.96 16.86L4.87 16.69L5.75 15.83ZM13.92 15.62L15 16.16L14.93 16.3L14.11 15.9L14.84 16.45C14.83 16.51 14.8 16.57 14.76 16.61L13.84 16.36C14.1 16.52 14.42 16.63 14.67 16.78C14.67 16.84 14.64 16.88 14.61 16.93L13.53 16.4L13.65 16.16L14.46 16.37C14.39 16.3 13.85 15.91 13.8 15.86L13.92 15.62ZM5.66 15.64L5.73 15.8L4.66 16.33L4.59 16.18L5.66 15.64ZM4.18 15.38C4.22 15.34 5.14 14.91 5.26 14.86L5.34 15.02L4.78 15.69L5.51 15.35L5.58 15.49L4.49 16C4.47 15.97 4.43 15.89 4.42 15.85C4.46 15.79 4.51 15.73 4.56 15.68C4.63 15.59 4.92 15.26 4.96 15.18L4.26 15.51C4.25 15.51 4.25 15.5 4.25 15.5C4.25 15.5 4.24 15.5 4.24 15.49L4.18 15.38ZM14.33 14.72C14.43 14.75 15.39 15.17 15.43 15.2L15.37 15.34L14.5 14.97L14.9 15.25C15.03 15.33 15.17 15.42 15.29 15.52L15.22 15.67L14.28 15.46C14.37 15.49 15.12 15.82 15.14 15.85L15.09 15.99L13.98 15.51C14 15.44 14.05 15.31 14.1 15.26L14.9 15.44C14.88 15.42 14.89 15.42 14.86 15.4L14.22 14.97L14.33 14.72ZM14.51 14.19L15.77 14.26L15.72 14.44L15.43 14.42L15.3 14.77C15.35 14.8 15.47 14.88 15.53 14.93L15.46 15.09L14.7 14.55C14.63 14.5 14.51 14.42 14.45 14.37L14.51 14.19ZM5.21 14.75C4.67 14.9 4.13 15.36 3.94 14.86C3.82 14.55 4.07 14.43 4.29 14.35C4.41 14.3 4.87 14.11 4.95 14.09L5.01 14.25C4.84 14.31 4.67 14.39 4.49 14.46C4.34 14.51 4.06 14.58 4.13 14.79C4.2 15.01 4.49 14.84 4.63 14.78C4.75 14.74 5.04 14.61 5.15 14.59L5.21 14.75ZM3.45 13.87C3.45 13.99 3.82 14.85 3.89 15.01C4.88 17.41 6.73 20.25 9.8 20.35C10.24 20.37 10.81 20.25 11.2 20.13C12.07 19.87 12.95 19.27 13.52 18.62C13.69 18.43 13.8 18.31 13.98 18.09C14.41 17.54 14.85 16.8 15.18 16.08C15.38 15.65 15.96 14.25 16.07 13.77H14.56C14.51 13.78 14.38 14.16 14.36 14.21C14.02 15.12 13.42 16.34 12.87 17.06C12.51 17.53 12.13 17.97 11.63 18.31C11.11 18.65 10.52 18.91 9.71 18.88C8.01 18.81 6.89 17.28 6.15 16.21C5.83 15.75 5.04 14.3 4.85 13.8L3.45 13.87Z" fill="#E52129"/>
<path fill-rule="evenodd" clip-rule="evenodd" d="M12.31 10.45C12.18 10.41 12.22 10.23 12.34 10.22C12.38 10.25 12.4 10.28 12.42 10.33C12.39 10.39 12.37 10.42 12.31 10.45ZM13.48 10.47C13.22 10.34 13.5 10.14 13.63 10C13.67 9.95001 13.72 9.88001 13.8 9.86001C13.88 9.91001 14.01 10.18 14.02 10.29C13.98 10.35 13.91 10.45 13.83 10.46C13.75 10.41 13.73 10.33 13.67 10.25C13.62 10.29 13.51 10.41 13.48 10.47ZM10.65 10.49C10.36 10.33 10.75 9.88001 10.8 9.85001C10.92 9.79001 11 10.01 11.04 10.1C11.12 10.28 11.12 10.4 11.19 10.46C11.11 10.47 11.11 10.45 11.06 10.49C10.99 10.39 10.94 10.23 10.87 10.14C10.8 10.18 10.72 10.41 10.65 10.49ZM12.11 10.47C12.01 10.39 12 10.28 12.06 10.15C12.3 9.61001 12.43 9.91001 12.56 10.26C12.57 10.29 12.59 10.32 12.59 10.35C12.61 10.43 12.58 10.4 12.62 10.45C12.4 10.47 12.48 10.29 12.34 10.12C12.26 10.15 12.18 10.4 12.11 10.47ZM12.97 9.81001C13.08 9.56001 13.15 9.78001 13.25 9.96001C13.3 10.06 13.38 10.15 13.32 10.28C13.29 10.34 13.19 10.51 13.09 10.45C13.05 10.43 13.03 10.36 13 10.31C12.98 10.25 12.96 10.19 12.91 10.16L12.76 10.46C12.68 10.46 12.65 10.4 12.62 10.35C12.58 10.24 12.8 9.86001 12.91 9.88001C12.97 9.89001 13.04 10.05 13.08 10.11C13.08 10.12 13.09 10.13 13.1 10.15C13.12 10.18 13.11 10.17 13.13 10.19C13.17 10.1 13.12 10.03 13.04 9.90001C13 9.83001 12.99 9.84001 12.97 9.81001ZM11.59 9.81001C11.69 9.54001 11.8 9.83001 11.87 9.95001C11.92 10.05 12.01 10.14 11.95 10.27C11.92 10.34 11.82 10.5 11.72 10.45C11.66 10.42 11.59 10.23 11.56 10.16C11.48 10.2 11.45 10.37 11.37 10.46C11.28 10.46 11.21 10.34 11.26 10.23C11.29 10.15 11.34 10.05 11.39 9.98001C11.59 9.70001 11.64 10.09 11.75 10.18C11.81 10.11 11.72 9.99001 11.66 9.89001L11.6 9.82001C11.6 9.81001 11.59 9.81001 11.59 9.81001ZM13.03 9.41001C12.89 9.45001 12.82 9.31001 12.91 9.20001C12.98 9.12001 13.21 8.89001 13.34 9.00001C13.41 9.07001 13.59 9.30001 13.62 9.38001C13.55 9.52001 13.5 9.42001 13.44 9.37001C13.49 9.45001 13.58 9.54001 13.62 9.62001C13.54 9.65001 13.51 9.68001 13.45 9.61001C13.41 9.57001 13.37 9.51001 13.34 9.47001C13.24 9.49001 13.18 9.60001 13.1 9.65001C13.02 9.63001 12.98 9.58001 12.94 9.53001C12.97 9.49001 13 9.47001 13.03 9.41001ZM11.06 9.17001C11.03 9.08001 11.1 9.02001 11.18 9.02001C11.21 9.06001 11.26 9.18001 11.29 9.22001C11.43 9.45001 11.44 9.41001 11.64 9.22001C11.7 9.17001 11.75 9.08001 11.82 9.02001C11.87 9.04001 11.96 9.12001 11.96 9.18001C11.97 9.23001 11.87 9.32001 11.84 9.36001C11.49 9.77001 11.37 9.65001 11.17 9.36001C11.14 9.31001 11.08 9.23001 11.06 9.17001ZM12.25 9.32001C12.19 9.22001 11.91 9.11001 12.33 8.92001C12.53 8.83001 12.67 9.04001 12.77 9.21001C12.66 9.36001 12.55 9.19001 12.5 9.10001C12.44 9.12001 12.4 9.14001 12.36 9.18001C12.38 9.24001 12.62 9.48001 12.68 9.54001C12.79 9.65001 12.67 9.72001 12.59 9.66001C12.54 9.63001 12.5 9.55001 12.43 9.51001C12.32 9.54001 12.24 9.64001 12.15 9.70001C11.85 9.55001 12.05 9.47001 12.25 9.32001ZM10.17 11.4L10.21 11.67C10.28 11.66 10.47 11.58 10.56 11.55C11.31 11.34 11.97 11.33 12.73 11.54C12.91 11.59 13.47 11.81 13.47 11.81L15.37 8.00001C15.04 7.94001 14.72 7.86001 14.39 7.81001C13.4 7.65001 12.61 7.64001 11.63 7.68001C11.18 7.69001 11.23 7.65001 11.15 7.79001C11 8.03001 10.87 8.27001 10.72 8.51001C10.65 8.63001 10.58 8.74001 10.51 8.87001C10.42 9.01001 10.45 9.16001 10.45 9.40001C10.45 9.78001 10.45 10.17 10.45 10.55C10.45 10.74 10.44 10.93 10.44 11.12C10.44 11.25 10.48 11.3 10.37 11.33L10.17 11.4Z" fill="#0188E0"/>
<path fill-rule="evenodd" clip-rule="evenodd" d="M6.15999 10.42C6.12999 10.46 6.07999 10.53 6.03999 10.54C5.97999 10.54 5.91999 10.49 5.92999 10.42C5.94999 10.31 6.09999 10.23 6.15999 10.42ZM7.52999 10.3C7.48999 10.29 7.50999 10.31 7.45999 10.27C7.36999 10.2 7.40999 10.11 7.45999 10.04C7.71999 9.70001 7.80999 9.87001 7.92999 10.07C7.97999 10.15 8.05999 10.24 7.99999 10.3C7.96999 10.33 7.93999 10.33 7.92999 10.33C7.94999 10.37 8.00999 10.45 8.00999 10.49C7.97999 10.51 7.95999 10.53 7.90999 10.53L7.77999 10.35C7.68999 10.39 7.66999 10.48 7.59999 10.52C7.52999 10.5 7.50999 10.46 7.45999 10.41L7.52999 10.3ZM5.76999 10.55C5.72999 10.53 5.67999 10.46 5.66999 10.39C5.65999 10.3 5.85999 9.96001 5.97999 9.94001C6.14999 9.91001 6.28999 10.23 6.33999 10.36C6.41999 10.53 6.34999 10.48 6.40999 10.54C6.12999 10.55 6.22999 10.28 6.04999 10.19C5.95999 10.26 5.85999 10.46 5.76999 10.55ZM8.10999 10.44C8.06999 10.38 8.08999 10.36 8.12999 10.3C8.46999 9.67001 8.54999 10.15 8.69999 10.3C8.80999 10.22 8.75999 10.18 8.69999 10.09C8.65999 10.03 8.60999 9.94001 8.53999 9.90001C8.59999 9.68001 8.72999 9.86001 8.78999 9.97001C8.87999 10.11 8.98999 10.22 8.95999 10.31C8.92999 10.39 8.77999 10.58 8.66999 10.52C8.59999 10.48 8.54999 10.29 8.45999 10.22C8.34999 10.29 8.31999 10.47 8.21999 10.54C8.15999 10.53 8.13999 10.49 8.10999 10.44ZM6.63999 10.06C6.78999 9.89001 6.84999 10.02 6.96999 10.18L7.02999 10.27C7.03999 10.29 7.03999 10.28 7.04999 10.3C7.16999 10.22 7.08999 10.14 7.03999 10.07L6.88999 9.88001C6.97999 9.77001 6.98999 9.73001 7.14999 9.98001C7.22999 10.12 7.33999 10.22 7.30999 10.31C7.28999 10.39 7.12999 10.58 7.01999 10.52C6.92999 10.47 6.89999 10.27 6.80999 10.22C6.69999 10.28 6.66999 10.45 6.56999 10.54C6.50999 10.53 6.48999 10.49 6.45999 10.44C6.39999 10.34 6.56999 10.13 6.63999 10.06ZM8.24999 9.50001C8.23999 9.49001 8.19999 9.49001 8.15999 9.46001C8.13999 9.44001 8.11999 9.41001 8.10999 9.38001C8.09999 9.32001 8.15999 9.25001 8.18999 9.22001C8.49999 8.89001 8.56999 9.06001 8.73999 9.30001C8.90999 9.55001 8.74999 9.55001 8.66999 9.46001C8.70999 9.53001 8.78999 9.62001 8.81999 9.68001C8.68999 9.74001 8.72999 9.76001 8.54999 9.53001C8.33999 9.61001 8.41999 9.84001 8.17999 9.61001C8.19999 9.57001 8.22999 9.53001 8.24999 9.50001ZM5.83999 9.61001C5.58999 9.82001 5.48999 9.73001 5.31999 9.48001C5.25999 9.39001 5.07999 9.14001 5.30999 9.13001C5.40999 9.25001 5.40999 9.38001 5.55999 9.49001C5.72999 9.45001 5.88999 9.17001 5.96999 9.13001C6.01999 9.15001 6.10999 9.25001 6.09999 9.29001C6.09999 9.35001 5.88999 9.56001 5.83999 9.61001ZM6.43999 9.38001C6.40999 9.32001 6.27999 9.24001 6.29999 9.16001C6.29999 9.15001 6.55999 8.80001 6.77999 9.05001C6.81999 9.10001 6.90999 9.21001 6.92999 9.28001C6.86999 9.33001 6.83999 9.37001 6.77999 9.30001C6.73999 9.26001 6.70999 9.21001 6.65999 9.17001C6.60999 9.19001 6.58999 9.21001 6.53999 9.23001C6.55999 9.28001 6.76999 9.51001 6.82999 9.57001C6.96999 9.72001 6.82999 9.80001 6.72999 9.70001C6.69999 9.65001 6.65999 9.61001 6.62999 9.57001C6.50999 9.60001 6.43999 9.71001 6.34999 9.76001C6.03999 9.62001 6.31999 9.50001 6.43999 9.38001ZM7.14999 9.74001C7.10999 9.74001 6.92999 9.65001 7.00999 9.51001C7.05999 9.41001 7.13999 9.32001 7.20999 9.25001C7.45999 9.00001 7.55999 9.37001 7.69999 9.48001L7.76999 9.41001C7.74999 9.33001 7.59999 9.14001 7.51999 9.10001L7.49999 9.09001C7.61999 8.88001 7.68999 9.00001 7.79999 9.13001C7.87999 9.25001 8.02999 9.40001 8.00999 9.48001C7.99999 9.57001 7.81999 9.76001 7.68999 9.73001C7.60999 9.72001 7.48999 9.49001 7.43999 9.43001C7.32999 9.45001 7.23999 9.65001 7.14999 9.74001ZM4.14999 7.98001L6.04999 11.79C6.17999 11.75 6.44999 11.61 6.76999 11.52C7.33999 11.36 7.94999 11.32 8.53999 11.43C8.87999 11.49 9.21999 11.64 9.30999 11.65L9.33999 11.42L9.26999 11.38C9.24999 11.37 9.22999 11.37 9.19999 11.36C9.15999 11.35 9.10999 11.34 9.05999 11.32L9.03999 9.14001C9.03999 9.02001 9.04999 8.98001 8.99999 8.90001L8.50999 7.99001C8.27999 7.58001 8.42999 7.67001 7.72999 7.65001C7.17999 7.63001 6.64999 7.63001 6.09999 7.67001C5.78999 7.69001 4.31999 7.88001 4.14999 7.98001Z" fill="#0188E0"/>
<path fill-rule="evenodd" clip-rule="evenodd" d="M9.35999 11.28C9.48999 11.23 9.56999 11.15 9.75999 11.16C9.94999 11.16 10.07 11.28 10.15 11.29C10.16 10.54 10.16 9.70001 10.18 8.96001C10.18 8.87001 10.21 8.86001 10.25 8.80001C10.48 8.49001 10.73 8.07001 10.89 7.71001C10.95 7.57001 10.92 7.07001 10.92 6.88001C10.93 6.32001 10.95 5.74001 10.94 5.18001C10.89 5.20001 10.33 5.61001 10.3 5.65001C10.29 5.89001 10.3 6.14001 10.3 6.39001C10.29 6.97001 10.42 7.30001 9.90999 7.51001C9.84999 7.54001 9.82999 7.55001 9.75999 7.55001C9.60999 7.54001 9.49999 7.47001 9.38999 7.38001C9.18999 7.23001 9.21999 7.10001 9.21999 6.80001L9.20999 5.67001C9.19999 5.62001 8.85999 5.38001 8.78999 5.33001C8.73999 5.29001 8.61999 5.20001 8.56999 5.18001C8.56999 5.73001 8.57999 6.30001 8.58999 6.85001C8.58999 7.03001 8.55999 7.58001 8.61999 7.70001C8.78999 8.09001 9.00999 8.46001 9.25999 8.79001C9.35999 8.93001 9.32999 8.92001 9.32999 9.14001C9.33999 9.82001 9.32999 10.63 9.35999 11.28Z" fill="#FFF000"/>
<path fill-rule="evenodd" clip-rule="evenodd" d="M9.20999 0.180006C10.86 0.0600061 12.26 0.520006 13.44 1.18001C13.72 1.34001 13.99 1.53001 14.23 1.70001C14.34 1.78001 14.85 2.18001 14.95 2.28001C15.1 2.45001 15.44 2.73001 15.61 2.94001L15.91 3.28001C16.01 3.41001 16.1 3.52001 16.2 3.64001C17.68 5.56001 18.73 8.31001 18.84 11.42C18.94 14.6 18.07 17.45 16.63 19.61C15.48 21.34 13.33 23.45 10.23 23.67C8.59999 23.79 7.15999 23.34 5.99999 22.67C5.64999 22.46 5.14999 22.13 4.83999 21.86C4.59999 21.66 4.36999 21.47 4.14999 21.24L3.52999 20.56C1.84999 18.52 0.719993 15.73 0.609993 12.43C0.509993 9.23001 1.37999 6.42001 2.80999 4.25001C3.95999 2.52001 6.11999 0.410006 9.20999 0.180006ZM9.98999 23.76H9.50999C8.61999 23.73 7.72999 23.54 6.93999 23.2C6.85999 23.17 6.78999 23.14 6.70999 23.11C6.62999 23.07 6.57999 23.04 6.48999 23C6.32999 22.94 6.20999 22.86 6.05999 22.78C5.91999 22.7 5.79999 22.62 5.66999 22.54C5.32999 22.35 5.02999 22.1 4.72999 21.86C4.66999 21.81 4.61999 21.76 4.55999 21.71C4.51999 21.67 4.49999 21.67 4.46999 21.63C4.43999 21.6 4.41999 21.58 4.38999 21.55C4.24999 21.42 4.11999 21.33 3.97999 21.15C3.90999 21.07 3.75999 20.93 3.65999 20.82L3.50999 20.64C3.24999 20.33 2.96999 19.98 2.74999 19.63C2.48999 19.2 2.27999 18.89 2.03999 18.41C1.73999 17.82 1.49999 17.22 1.27999 16.6C0.989993 15.8 0.789993 14.81 0.669993 13.98C0.649993 13.79 0.629993 13.6 0.609993 13.4C0.579993 13.2 0.579993 12.98 0.559993 12.8C0.549993 12.73 0.539993 12.62 0.539993 12.5V11.66V11.41C0.539993 11.39 0.539993 11.37 0.549993 11.35C0.559993 11.25 0.549993 11.14 0.559993 11.04C0.569993 10.98 0.569993 10.95 0.569993 10.89C0.569993 10.74 0.619993 10.31 0.639993 10.15L0.759993 9.31001C0.829993 8.94001 0.899993 8.59001 0.989993 8.25001C1.40999 6.58001 2.03999 5.23001 3.00999 3.85001C3.21999 3.56001 3.44999 3.31001 3.65999 3.04001C3.68999 3.00001 3.70999 2.99001 3.73999 2.95001L3.96999 2.70001C4.05999 2.59001 4.17999 2.49001 4.28999 2.38001C4.32999 2.35001 4.33999 2.34001 4.37999 2.31001C4.55999 2.15001 4.70999 2.01001 4.89999 1.86001C5.24999 1.58001 5.64999 1.29001 6.04999 1.08001C6.11999 1.04001 6.19999 1.00001 6.26999 0.960006C6.81999 0.630006 7.80999 0.320006 8.42999 0.210006C8.87999 0.140006 9.33999 0.100006 9.83999 0.100006C10.76 0.100006 11.99 0.380006 12.77 0.760006C12.84 0.800006 12.91 0.830006 12.99 0.860006C13.14 0.940006 13.27 1.01001 13.42 1.09001C13.81 1.30001 14.42 1.72001 14.74 2.02001C14.78 2.05001 14.8 2.06001 14.83 2.09001C15.06 2.30001 15.3 2.49001 15.5 2.73001C15.52 2.76001 15.55 2.78001 15.58 2.81001C15.8 3.02001 15.99 3.27001 16.18 3.50001C16.69 4.13001 17.33 5.18001 17.64 5.91001C17.67 5.99001 17.7 6.06001 17.74 6.14001C17.77 6.21001 17.8 6.28001 17.84 6.36001C18.23 7.35001 18.51 8.27001 18.7 9.36001C18.86 10.31 18.91 11.12 18.91 12.15C18.91 14.25 18.38 16.51 17.42 18.4C17.4 18.44 17.38 18.47 17.36 18.51L16.95 19.23C16.77 19.55 16.52 19.9 16.3 20.19L15.4 21.24C15.35 21.3 15.29 21.34 15.24 21.4L15.06 21.55C14.9 21.71 14.72 21.86 14.54 22C14.51 22.03 14.48 22.05 14.45 22.07C14.42 22.1 14.39 22.12 14.36 22.14C13.78 22.57 13.17 22.93 12.5 23.21C12.26 23.31 12.02 23.38 11.77 23.46C11.21 23.64 10.6 23.74 9.98999 23.76Z" fill="#342D2C"/>
<path fill-rule="evenodd" clip-rule="evenodd" d="M1.47999 12.32C1.40999 9.38 2.17999 6.84 3.48999 4.81C4.51999 3.22 6.51999 1.25 9.33999 1.08C10.8 0.990002 12.13 1.42 13.15 2.04C13.45 2.23 13.92 2.55 14.18 2.79L14.5 3.08C16.62 5 17.88 8.26 17.97 11.53C18.06 14.74 17.13 17.56 15.46 19.73C15.22 20.05 14.9 20.4 14.62 20.67C13.42 21.82 11.95 22.67 10.11 22.78C8.64999 22.86 7.31999 22.43 6.29999 21.81C5.99999 21.63 5.45999 21.25 5.17999 21L4.64999 20.49C4.59999 20.43 4.55999 20.4 4.49999 20.34C4.24999 20.03 4.08999 19.87 3.81999 19.51C2.47999 17.71 1.54999 15.15 1.47999 12.32ZM18.03 12.57C18.19 9.8 17.36 6.84 16.11 4.93C15.88 4.58 15.37 3.85 15.07 3.56L14.77 3.25C14.49 2.95 14.14 2.66 13.81 2.41C11.29 0.520002 8.22999 0.560002 5.69999 2.37C5.57999 2.45 5.45999 2.54 5.35999 2.63C5.24999 2.72 5.13999 2.81 5.03999 2.9C4.99999 2.93 4.98999 2.95 4.95999 2.98C4.82999 3.1 4.52999 3.38 4.42999 3.5L4.14999 3.82C4.05999 3.93 3.96999 4.04 3.87999 4.15C2.49999 5.93 1.56999 8.42 1.41999 11.27C1.26999 14.25 2.08999 17.31 3.82999 19.64C3.96999 19.81 4.37999 20.33 4.52999 20.46C4.57999 20.51 4.61999 20.56 4.67999 20.61C4.84999 20.79 5.09999 21.02 5.30999 21.19C6.31999 21.99 7.50999 22.66 9.08999 22.82C10.55 22.97 11.96 22.58 13.02 21.96C13.28 21.81 13.52 21.65 13.75 21.49C13.98 21.32 14.09 21.22 14.25 21.09C14.37 21 14.46 20.9 14.57 20.8C14.76 20.64 14.93 20.45 15.1 20.27C15.12 20.24 15.14 20.22 15.16 20.19L15.57 19.71C17.14 17.68 17.87 15.2 18.03 12.57Z" fill="#342D2C"/>
<path fill-rule="evenodd" clip-rule="evenodd" d="M10.16 13.83C10.44 13.85 10.78 14.14 10.94 14.33C11.4 14.85 11.4 15.63 10.95 16.21C10.82 16.38 10.49 16.66 10.17 16.72V17.29L11.14 17.3L11.56 15.96C11.63 15.73 11.71 15.51 11.77 15.29C11.82 15.15 11.98 14.71 11.98 14.61L10.39 13.43C10.32 13.38 10.23 13.31 10.16 13.26V13.83Z" fill="#008223"/>
<path fill-rule="evenodd" clip-rule="evenodd" d="M4.79998 11.77C5.23998 11.56 5.41998 11.65 5.90998 11.74C5.86998 11.62 5.54998 11.01 5.46998 10.84C5.34998 10.6 4.21998 8.31001 4.12998 8.18001C4.09998 8.33001 4.07998 8.49001 4.05998 8.65001C4.02998 8.89001 4.03998 8.78001 4.18998 9.06001C4.31998 9.29001 4.43998 9.55001 4.52998 9.83001C4.72998 10.47 4.78998 11.06 4.79998 11.77Z" fill="#ADA6A0"/>
<path fill-rule="evenodd" clip-rule="evenodd" d="M13.6 11.79C13.79 11.76 13.95 11.71 14.15 11.7C14.41 11.68 14.49 11.71 14.68 11.81C14.69 11.49 14.46 11.21 14.59 10.85C14.64 10.69 14.81 10.4 14.93 10.05C14.97 9.92 15.01 9.75 15.03 9.6C15.05 9.39 15.03 9.29 15.15 9.15C15.36 8.87 15.41 8.69 15.36 8.25C15.32 8.3 14.98 9 14.92 9.12C14.77 9.42 14.63 9.71 14.48 10.01C14.41 10.16 13.63 11.69 13.6 11.79Z" fill="#ADA6A0"/>
<path fill-rule="evenodd" clip-rule="evenodd" d="M9.92999 18.8L10.11 18.79L10.09 11.56C10.09 11.34 10.11 11.33 9.91999 11.25C9.89999 11.5 9.91999 12.78 9.91999 13.14V17.85C9.91999 18.05 9.88999 18.64 9.92999 18.8Z" fill="#DBA324"/>
<path fill-rule="evenodd" clip-rule="evenodd" d="M9.56 2.76001C9.23 3.07001 8.63 3.02001 8.5 3.10001C8.74 3.33001 9.32 3.50001 9.71 3.50001C9.95 3.50001 10.19 3.45001 10.39 3.37001C10.52 3.32001 10.86 3.16001 10.89 3.08001C10.68 3.05001 10.23 2.99001 10.04 2.90001C9.94 2.86001 9.9 2.81001 9.83 2.76001V1.72001C9.83 1.66001 9.83 1.62001 9.8 1.58001C9.78 1.54001 9.74 1.51001 9.7 1.51001C9.5 1.51001 9.56 1.89001 9.56 2.06001C9.56 2.29001 9.56 2.53001 9.56 2.76001Z" fill="#FFF000"/>
<path fill-rule="evenodd" clip-rule="evenodd" d="M8.24 15.51C8.19 15.09 8.3 14.69 8.5 14.41C8.65 14.2 8.97 13.9 9.33 13.83V13.28C9.25 13.32 8.51 13.88 8.42 13.95L7.53 14.62C7.54 14.69 7.83 15.6 7.85 15.62C7.99 15.57 8.09 15.54 8.24 15.51Z" fill="#008223"/>
<path fill-rule="evenodd" clip-rule="evenodd" d="M10.17 16.37C10.57 16.24 10.95 15.81 10.95 15.28C10.95 14.74 10.57 14.3 10.16 14.17L10.17 16.37Z" fill="#008223"/>
<path fill-rule="evenodd" clip-rule="evenodd" d="M9.47 11.3V18.77L9.63 18.79C9.61 17.54 9.63 16.27 9.63 15.01C9.63 14.6 9.6 11.33 9.65 11.23C9.58 11.24 9.52 11.26 9.47 11.3Z" fill="#B97F01"/>
<path fill-rule="evenodd" clip-rule="evenodd" d="M9.63 18.79L9.93 18.8C9.89 18.64 9.92 18.05 9.92 17.85V13.14C9.92 12.78 9.9 11.5 9.92 11.25L9.76 11.22V18.79H9.63Z" fill="#B97F01"/>
<path fill-rule="evenodd" clip-rule="evenodd" d="M9.33 16.71C9.06 16.66 8.82 16.48 8.69 16.34C8.54 16.2 8.37 16 8.3 15.73C8.16 15.75 8.01 15.8 7.94 15.87C7.92 15.94 8.32 17.09 8.37 17.3H9.33V16.71Z" fill="#008223"/>
<path fill-rule="evenodd" clip-rule="evenodd" d="M10.16 14.17C10.57 14.3 10.95 14.74 10.95 15.28C10.95 15.81 10.57 16.24 10.17 16.37V16.72C10.49 16.66 10.82 16.38 10.95 16.21C11.4 15.63 11.4 14.85 10.94 14.33C10.78 14.14 10.44 13.85 10.16 13.83V14.17Z" fill="#FEFE00"/>
<path fill-rule="evenodd" clip-rule="evenodd" d="M9.31999 18.75V18.02H8.28999V17.59H8.15999L7.79999 16.48C7.76999 16.76 7.81999 17.49 7.84999 17.82C7.86999 18.08 7.82999 18.03 7.99999 18.15C8.27999 18.35 8.87999 18.71 9.31999 18.75Z" fill="#FDFDFD"/>
<path fill-rule="evenodd" clip-rule="evenodd" d="M9.62999 18.79H9.75999V11.22L9.64999 11.23C9.59999 11.33 9.62999 14.6 9.62999 15.01C9.62999 16.27 9.60999 17.54 9.62999 18.79Z" fill="#E8B233"/>
<path fill-rule="evenodd" clip-rule="evenodd" d="M5.30999 12.4C5.36999 12.46 5.41999 12.48 5.45999 12.6C5.48999 12.7 5.48999 12.81 5.46999 12.92C5.24999 12.93 5.02999 12.94 4.80999 12.95C4.58999 12.96 4.33999 12.93 4.20999 13.03C4.10999 13.11 3.96999 13.25 3.92999 13.42C3.86999 13.72 4.15999 13.61 4.34999 13.57C4.70999 13.48 5.05999 13.38 5.38999 13.25C5.53999 13.19 5.75999 13.12 5.77999 12.96C5.81999 12.73 5.77999 12.56 5.70999 12.36L5.30999 12.4Z" fill="#312823"/>
<path fill-rule="evenodd" clip-rule="evenodd" d="M14.26 12.37C14.17 12.37 13.94 12.36 13.87 12.33C13.8 12.52 13.76 12.65 13.79 12.9C13.81 13.03 13.85 13.03 13.94 13.09C14.22 13.25 14.9 13.44 15.22 13.51C15.38 13.55 15.69 13.66 15.65 13.38C15.62 13.22 15.47 13.05 15.37 12.99C15.25 12.91 15.25 12.92 15.09 12.92C14.88 12.91 14.22 12.9 14.1 12.87C14.07 12.57 14.12 12.53 14.26 12.37Z" fill="#312823"/>
<path fill-rule="evenodd" clip-rule="evenodd" d="M10.16 13.16C10.23 13.19 10.32 13.27 10.4 13.33C10.48 13.39 10.56 13.45 10.63 13.51C10.76 13.6 12 14.54 12.08 14.57C12.07 14.71 11.91 15.12 11.87 15.28L11.42 16.68C11.35 16.9 11.26 17.15 11.2 17.38H10.18V17.51H11.29C11.33 17.43 12.23 14.56 12.23 14.54C12.18 14.48 10.81 13.48 10.68 13.38L10.16 13V13.16Z" fill="#FEFE00"/>
<path fill-rule="evenodd" clip-rule="evenodd" d="M13.8 15.86C13.85 15.91 14.39 16.3 14.46 16.37L13.65 16.16L13.53 16.4L14.61 16.93C14.64 16.88 14.67 16.84 14.67 16.78C14.42 16.63 14.1 16.52 13.84 16.36L14.76 16.61C14.8 16.57 14.83 16.51 14.84 16.45L14.11 15.9L14.93 16.3L15 16.16L13.92 15.62L13.8 15.86Z" fill="#FDF8FA"/>
<path fill-rule="evenodd" clip-rule="evenodd" d="M14.22 14.97L14.86 15.4C14.89 15.42 14.88 15.42 14.9 15.44L14.1 15.26C14.05 15.31 14 15.44 13.98 15.51L15.09 15.99L15.14 15.85C15.12 15.82 14.37 15.49 14.28 15.46L15.22 15.67L15.29 15.52C15.17 15.42 15.03 15.33 14.9 15.25L14.5 14.97L15.37 15.34L15.43 15.2C15.39 15.17 14.43 14.75 14.33 14.72L14.22 14.97Z" fill="#FDF8FA"/>
<path fill-rule="evenodd" clip-rule="evenodd" d="M8.58 15.46L9.33 15.42V14.18C9.11 14.24 8.85 14.49 8.75 14.64C8.59 14.9 8.55 15.11 8.58 15.46Z" fill="#008223"/>
<path fill-rule="evenodd" clip-rule="evenodd" d="M8.24 15.51L8.58 15.46C8.55 15.11 8.59 14.9 8.75 14.64C8.85 14.49 9.11 14.24 9.33 14.18V13.83C8.97 13.9 8.65 14.2 8.5 14.41C8.3 14.69 8.19 15.09 8.24 15.51Z" fill="#FEFE00"/>
<path fill-rule="evenodd" clip-rule="evenodd" d="M9.46998 18.77V11.3L9.39998 11.33L9.38998 18.77H9.46998Z" fill="#E7B133"/>
<path fill-rule="evenodd" clip-rule="evenodd" d="M6.31998 17.58C6.39998 17.53 6.46998 17.45 6.53998 17.4C6.64998 17.48 6.82998 17.66 6.67998 17.78C6.52998 17.89 6.45998 17.76 6.37998 17.67C6.32998 17.63 6.33998 17.64 6.31998 17.58ZM5.66998 17.92C5.69998 17.96 5.74998 18.01 5.78998 18.04C5.84998 18.01 6.04998 17.8 6.16998 17.72C6.28998 17.86 6.26998 17.87 6.15998 18.14C6.13998 18.18 6.07998 18.33 6.07998 18.35C6.07998 18.39 6.16998 18.48 6.21998 18.51C6.28998 18.29 6.37998 18.21 6.39998 17.94C6.52998 17.99 6.59998 18.05 6.74998 17.95C7.09998 17.71 6.91998 17.53 6.79998 17.38L6.56998 17.14L5.66998 17.92Z" fill="#FDF8FA"/>
<path fill-rule="evenodd" clip-rule="evenodd" d="M4.17999 15.38L4.23999 15.49C4.23999 15.5 4.24999 15.5 4.24999 15.5C4.24999 15.5 4.24999 15.51 4.25999 15.51L4.95999 15.18C4.91999 15.26 4.62999 15.59 4.55999 15.68C4.50999 15.73 4.45999 15.79 4.41999 15.85C4.42999 15.89 4.46999 15.97 4.48999 16L5.57999 15.49L5.50999 15.35L4.77999 15.69L5.33999 15.02L5.25999 14.86C5.13999 14.91 4.21999 15.34 4.17999 15.38Z" fill="#FDF8FA"/>
<path fill-rule="evenodd" clip-rule="evenodd" d="M10.98 18.81L11.22 19.57L10.62 18.93L10.45 18.98L10.81 20.11L10.96 20.07L10.73 19.33C10.83 19.39 11.2 19.84 11.33 19.95L11.49 19.9L11.14 18.77L10.98 18.81Z" fill="#FDF8FA"/>
<path fill-rule="evenodd" clip-rule="evenodd" d="M12.51 18.04C12.7 17.77 12.88 17.85 13.08 18.05C13.3 18.26 13.35 18.4 13.08 18.6L12.51 18.04ZM12.24 18.02C12.24 18.03 13.04 18.82 13.1 18.86C13.15 18.83 13.43 18.56 13.45 18.44C13.52 18.12 13 17.62 12.67 17.67C12.52 17.7 12.33 17.94 12.24 18.02Z" fill="#FDF8FA"/>
<path fill-rule="evenodd" clip-rule="evenodd" d="M11.43 18.83C11.72 18.62 11.83 18.76 11.97 18.99C12.13 19.27 12.12 19.41 11.82 19.53C11.76 19.45 11.68 19.27 11.62 19.17C11.55 19.06 11.49 18.95 11.43 18.83ZM11.17 18.74C11.2 18.82 11.41 19.17 11.47 19.27C11.51 19.35 11.56 19.43 11.61 19.52C11.65 19.6 11.73 19.7 11.75 19.78C11.83 19.75 11.93 19.69 12 19.65C12.1 19.59 12.16 19.57 12.22 19.48C12.39 19.21 12.02 18.59 11.72 18.53C11.52 18.49 11.33 18.69 11.17 18.74Z" fill="#FDF8FA"/>
<path fill-rule="evenodd" clip-rule="evenodd" d="M5.17999 17.23C5.29999 17.41 5.45999 17.59 5.57999 17.77C5.61999 17.76 5.69999 17.7 5.73999 17.67C5.66999 17.54 5.52999 17.39 5.44999 17.26C5.49999 17.21 5.65999 17.1 5.71999 17.07C5.76999 17.12 5.80999 17.19 5.84999 17.25C5.88999 17.3 5.94999 17.37 5.97999 17.43C6.04999 17.4 6.07999 17.35 6.13999 17.33C6.08999 17.2 5.95999 17.08 5.88999 16.96C5.92999 16.89 6.03999 16.86 6.08999 16.8C6.13999 16.82 6.13999 16.84 6.16999 16.88L6.39999 17.18C6.45999 17.15 6.49999 17.12 6.54999 17.07C6.50999 17 6.41999 16.88 6.36999 16.81C6.29999 16.73 6.22999 16.63 6.17999 16.55C6.09999 16.57 5.26999 17.15 5.17999 17.23Z" fill="#FDF8FA"/>
<path fill-rule="evenodd" clip-rule="evenodd" d="M13.13 17.02C13.31 17.11 14.05 17.58 14.15 17.63L14.52 17.06L14.35 16.96C14.28 17.05 14.13 17.32 14.08 17.38C14.03 17.36 13.83 17.24 13.8 17.21L14.03 16.83C13.99 16.8 13.91 16.75 13.85 16.73C13.83 16.8 13.67 17.06 13.62 17.1C13.55 17.06 13.46 17 13.39 16.97C13.44 16.84 13.59 16.69 13.64 16.55C13.59 16.52 13.54 16.48 13.47 16.46C13.42 16.58 13.18 16.89 13.13 17.02Z" fill="#FDF8FA"/>
<path fill-rule="evenodd" clip-rule="evenodd" d="M6.63999 18.37L6.49999 18.29C6.12999 18.7 6.72999 19.2 7.05999 18.75C7.24999 18.5 7.05999 18.37 6.98999 18.17C6.93999 18.04 7.05999 17.96 7.16999 18.02C7.32999 18.12 7.23999 18.18 7.21999 18.3C7.24999 18.33 7.30999 18.37 7.34999 18.39C7.42999 18.34 7.56999 18.06 7.28999 17.87C7.07999 17.73 6.83999 17.89 6.77999 18.07C6.68999 18.35 7.01999 18.51 6.89999 18.67C6.82999 18.77 6.69999 18.75 6.62999 18.67C6.51999 18.57 6.60999 18.48 6.63999 18.37Z" fill="#FDF8FA"/>
<path fill-rule="evenodd" clip-rule="evenodd" d="M8.94 19.7L8.77 19.68C8.76 19.96 8.83 20.12 9.09 20.16C9.34 20.2 9.49 20.01 9.5 19.78C9.51 19.5 9.3 19.47 9.15 19.35C9.05 19.28 9.06 19.14 9.2 19.13C9.36 19.12 9.39 19.2 9.4 19.34L9.57 19.36C9.6 19.1 9.48 18.93 9.2 18.94C8.99 18.95 8.84 19.19 8.93 19.41C9.01 19.62 9.32 19.64 9.32 19.81C9.32 19.93 9.21 19.99 9.08 19.96C8.96 19.92 8.96 19.83 8.94 19.7Z" fill="#FDF8FA"/>
<path fill-rule="evenodd" clip-rule="evenodd" d="M7.28 14.54L7.67 15.77C7.7 15.74 7.74 15.7 7.77 15.67C7.72 15.43 7.45 14.76 7.43 14.57C7.5 14.54 8.76 13.6 8.88 13.51L9.23 13.24C9.29 13.21 9.33 13.19 9.33 13.11V13.02C9.26 13.05 8.34 13.74 8.29 13.78C8.2 13.85 7.33 14.48 7.28 14.54Z" fill="#FEFE00"/>
<path fill-rule="evenodd" clip-rule="evenodd" d="M8.25999 19.4C8.26999 19.36 8.39999 19.19 8.44999 19.12L8.51999 19.05C8.51999 19.04 8.51999 19.04 8.52999 19.04L8.48999 19.49L8.25999 19.4ZM7.78999 19.72L7.86999 19.76C7.89999 19.77 7.92999 19.78 7.95999 19.79C7.98999 19.76 8.09999 19.6 8.11999 19.57L8.47999 19.69L8.45999 19.97L8.62999 20.04L8.70999 18.8L8.53999 18.74C8.47999 18.79 8.38999 18.92 8.34999 18.98L7.78999 19.72Z" fill="#FDF8FA"/>
<path fill-rule="evenodd" clip-rule="evenodd" d="M14.76 14.38C14.82 14.35 15.11 14.4 15.21 14.4C15.21 14.46 15.15 14.6 15.12 14.64C15.01 14.55 14.87 14.48 14.76 14.38ZM14.45 14.37C14.51 14.42 14.63 14.5 14.7 14.55L15.46 15.09L15.53 14.93C15.47 14.88 15.35 14.8 15.3 14.77L15.43 14.42L15.72 14.44L15.77 14.26L14.51 14.19L14.45 14.37Z" fill="#FDF8FA"/>
<path fill-rule="evenodd" clip-rule="evenodd" d="M10.15 19.29L10.32 19.72L10.07 19.74L10.15 19.29ZM10.03 19.03L9.79999 20.24L9.98999 20.22L10.03 19.96C10.08 19.92 10.35 19.91 10.41 19.91L10.51 20.16L10.7 20.15L10.22 19.01C10.18 19 10.09 19.01 10.03 19.03Z" fill="#FDF8FA"/>
<path fill-rule="evenodd" clip-rule="evenodd" d="M5.21 14.75L5.15 14.59C5.04 14.61 4.75 14.74 4.63 14.78C4.49 14.84 4.2 15.01 4.13 14.79C4.06 14.58 4.34 14.51 4.49 14.46C4.67 14.39 4.84 14.31 5.01 14.25L4.95 14.09C4.87 14.11 4.41 14.3 4.29 14.35C4.07 14.43 3.82 14.55 3.94 14.86C4.13 15.36 4.67 14.9 5.21 14.75Z" fill="#FDF8FA"/>
<path fill-rule="evenodd" clip-rule="evenodd" d="M8.38998 7.26001C8.38998 7.74001 8.42998 7.64001 8.68998 8.15001C8.75998 8.28001 8.82998 8.40001 8.89998 8.53001C8.93998 8.59001 8.96998 8.65001 8.99998 8.72001C9.02998 8.77001 9.08998 8.87001 9.10998 8.92001C9.15998 9.06001 9.10998 10.96 9.14998 11.26L9.26998 11.29C9.28998 11.14 9.25998 9.00001 9.23998 8.92001C9.22998 8.89001 9.13998 8.78001 9.11998 8.75001C8.99998 8.59001 8.86998 8.37001 8.76998 8.19001C8.69998 8.07001 8.61998 7.92001 8.56998 7.79001C8.46998 7.58001 8.50998 7.53001 8.50998 7.24001L8.38998 7.26001Z" fill="#FDFDFD"/>
<path fill-rule="evenodd" clip-rule="evenodd" d="M9.64998 21.97C9.72998 21.84 9.98998 21.94 9.83998 22.16C9.79998 22.21 9.81998 22.34 9.81998 22.43C9.87998 22.36 9.93998 22.21 9.98998 22.11C10.03 22.03 10.01 22.03 9.96998 21.95C9.85998 21.76 9.81998 21.75 9.86998 21.65C9.91998 21.54 10.08 21.23 10.1 21.15C9.86998 21.07 9.69998 20.98 9.41998 21.17C9.44998 21.26 9.60998 21.54 9.66998 21.65C9.70998 21.72 9.67998 21.74 9.63998 21.8C9.52998 21.98 9.47998 22.02 9.52998 22.12C9.56998 22.21 9.63998 22.36 9.68998 22.43L9.69998 22.21C9.69998 22.13 9.57998 22.1 9.64998 21.97Z" fill="#FFF000"/>
<path fill-rule="evenodd" clip-rule="evenodd" d="M8.29999 15.73C8.36999 16 8.53999 16.2 8.68999 16.34C8.81999 16.48 9.05999 16.66 9.32999 16.71L9.31999 16.36C9.03999 16.28 8.72999 15.96 8.63999 15.69L8.29999 15.73Z" fill="#FEFE00"/>
<path fill-rule="evenodd" clip-rule="evenodd" d="M10.24 11.28L10.36 11.24C10.36 10.96 10.34 9.00001 10.38 8.91001L10.82 8.17001C10.9 8.04001 10.97 7.92001 11.04 7.80001C11.09 7.72001 11.12 7.70001 11.12 7.59001C11.12 7.48001 11.13 7.38001 11.12 7.28001L11.01 7.23001C11 7.33001 11 7.43001 11 7.53001C11 7.68001 11 7.66001 10.95 7.78001C10.89 7.92001 10.82 8.06001 10.75 8.18001C10.64 8.38001 10.53 8.55001 10.4 8.73001C10.38 8.76001 10.28 8.89001 10.27 8.91001C10.25 8.97001 10.23 11.08 10.24 11.28Z" fill="#FDFDFD"/>
<path fill-rule="evenodd" clip-rule="evenodd" d="M4.87 16.69L4.96 16.86C5.09 16.84 6.11 16.57 6.15 16.54C6.16 16.49 6.11 16.44 6.09 16.39L5.19 16.63C5.23 16.55 5.73 16.12 5.84 15.99L5.75 15.83L4.87 16.69Z" fill="#FDF8FA"/>
<path fill-rule="evenodd" clip-rule="evenodd" d="M7.49999 9.09L7.51999 9.1C7.59999 9.14 7.74999 9.33 7.76999 9.41L7.69999 9.48C7.55999 9.37 7.45999 9 7.20999 9.25C7.13999 9.32 7.05999 9.41 7.00999 9.51C6.92999 9.65 7.10999 9.74 7.14999 9.74C7.23999 9.65 7.32999 9.45 7.43999 9.43C7.48999 9.49 7.60999 9.72 7.68999 9.73C7.81999 9.76 7.99999 9.57 8.00999 9.48C8.02999 9.4 7.87999 9.25 7.79999 9.13C7.68999 9 7.61999 8.88 7.49999 9.09Z" fill="#332C2B"/>
<path fill-rule="evenodd" clip-rule="evenodd" d="M12.25 9.32001C12.05 9.47001 11.85 9.55001 12.15 9.70001C12.24 9.64001 12.32 9.54001 12.43 9.51001C12.5 9.55001 12.54 9.63001 12.59 9.66001C12.67 9.72001 12.79 9.65001 12.68 9.54001C12.62 9.48001 12.38 9.24001 12.36 9.18001C12.4 9.14001 12.44 9.12001 12.5 9.10001C12.55 9.19001 12.66 9.36001 12.77 9.21001C12.67 9.04001 12.53 8.83001 12.33 8.92001C11.91 9.11001 12.19 9.22001 12.25 9.32001Z" fill="#332C2B"/>
<path fill-rule="evenodd" clip-rule="evenodd" d="M13.15 9.31001C13.19 9.27001 13.23 9.22001 13.31 9.20001C13.35 9.23001 13.37 9.26001 13.4 9.31001C13.35 9.29001 13.34 9.25001 13.27 9.26001C13.23 9.26001 13.18 9.29001 13.15 9.31001ZM13.03 9.41001C13 9.47001 12.97 9.49001 12.94 9.53001C12.98 9.58001 13.02 9.63001 13.1 9.65001C13.18 9.60001 13.24 9.49001 13.34 9.47001C13.37 9.51001 13.41 9.57001 13.45 9.61001C13.51 9.68001 13.54 9.65001 13.62 9.62001C13.58 9.54001 13.49 9.45001 13.44 9.37001C13.5 9.42001 13.55 9.52001 13.62 9.38001C13.59 9.30001 13.41 9.07001 13.34 9.00001C13.21 8.89001 12.98 9.12001 12.91 9.20001C12.82 9.31001 12.89 9.45001 13.03 9.41001Z" fill="#332C2B"/>
<path fill-rule="evenodd" clip-rule="evenodd" d="M7.76 18.52L7.98 18.66C7.95 18.74 7.89 18.82 7.85 18.88C7.77 19.01 7.48 19.45 7.47 19.52L7.6 19.6C7.68 19.54 8.03 18.9 8.14 18.76L8.38 18.9C8.4 18.83 8.44 18.8 8.47 18.72C8.35 18.68 7.97 18.41 7.85 18.36L7.76 18.52Z" fill="#FDF8FA"/>
<path fill-rule="evenodd" clip-rule="evenodd" d="M8.22999 17.51H9.31999L9.32999 17.38H8.30999L7.85999 15.97C7.75999 16.22 7.86999 16.41 7.97999 16.75C8.01999 16.88 8.05999 17 8.09999 17.13C8.12999 17.23 8.17999 17.43 8.22999 17.51Z" fill="#FEFE00"/>
<path fill-rule="evenodd" clip-rule="evenodd" d="M8.54 9.90001C8.61 9.94001 8.66 10.03 8.7 10.09C8.76 10.18 8.81 10.22 8.7 10.3C8.55 10.15 8.47 9.67001 8.13 10.3C8.09 10.36 8.07 10.38 8.11 10.44C8.14 10.49 8.16 10.53 8.22 10.54C8.32 10.47 8.35 10.29 8.46 10.22C8.55 10.29 8.6 10.48 8.67 10.52C8.78 10.58 8.93 10.39 8.96 10.31C8.99 10.22 8.88 10.11 8.79 9.97001C8.73 9.86001 8.6 9.68001 8.54 9.90001Z" fill="#332C2B"/>
<path fill-rule="evenodd" clip-rule="evenodd" d="M6.88999 9.88001L7.03999 10.07C7.08999 10.14 7.16999 10.22 7.04999 10.3C7.03999 10.28 7.03999 10.29 7.02999 10.27L6.96999 10.18C6.84999 10.02 6.78999 9.89001 6.63999 10.06C6.56999 10.13 6.39999 10.34 6.45999 10.44C6.48999 10.49 6.50999 10.53 6.56999 10.54C6.66999 10.45 6.69999 10.28 6.80999 10.22C6.89999 10.27 6.92999 10.47 7.01999 10.52C7.12999 10.58 7.28999 10.39 7.30999 10.31C7.33999 10.22 7.22999 10.12 7.14999 9.98001C6.98999 9.73001 6.97999 9.77001 6.88999 9.88001Z" fill="#332C2B"/>
<path fill-rule="evenodd" clip-rule="evenodd" d="M8.63998 15.69C8.72998 15.96 9.03998 16.28 9.31998 16.36L9.32998 15.66L8.63998 15.69Z" fill="#008223"/>
<path fill-rule="evenodd" clip-rule="evenodd" d="M8.41 9.34001C8.44 9.30001 8.47 9.28001 8.52 9.26001C8.58 9.30001 8.6 9.35001 8.62 9.39001C8.56 9.32001 8.54 9.30001 8.41 9.34001ZM8.25 9.50001C8.23 9.53001 8.2 9.57001 8.18 9.61001C8.42 9.84001 8.34 9.61001 8.55 9.53001C8.73 9.76001 8.69 9.74001 8.82 9.68001C8.79 9.62001 8.71 9.53001 8.67 9.46001C8.75 9.55001 8.91 9.55001 8.74 9.30001C8.57 9.06001 8.5 8.89001 8.19 9.22001C8.16 9.25001 8.1 9.32001 8.11 9.38001C8.12 9.41001 8.14 9.44001 8.16 9.46001C8.2 9.49001 8.24 9.49001 8.25 9.50001Z" fill="#332C2B"/>
<path fill-rule="evenodd" clip-rule="evenodd" d="M6.43999 9.38001C6.31999 9.50001 6.03999 9.62001 6.34999 9.76001C6.43999 9.71001 6.50999 9.60001 6.62999 9.57001C6.65999 9.61001 6.69999 9.65001 6.72999 9.70001C6.82999 9.80001 6.96999 9.72001 6.82999 9.57001C6.76999 9.51001 6.55999 9.28001 6.53999 9.23001C6.58999 9.21001 6.60999 9.19001 6.65999 9.17001C6.70999 9.21001 6.73999 9.26001 6.77999 9.30001C6.83999 9.37001 6.86999 9.33001 6.92999 9.28001C6.90999 9.21001 6.81999 9.10001 6.77999 9.05001C6.55999 8.80001 6.29999 9.15001 6.29999 9.16001C6.27999 9.24001 6.40999 9.32001 6.43999 9.38001Z" fill="#332C2B"/>
<path fill-rule="evenodd" clip-rule="evenodd" d="M13 10.31C13.03 10.36 13.05 10.43 13.09 10.45C13.19 10.51 13.29 10.34 13.32 10.28C13.38 10.15 13.3 10.06 13.25 9.96001C13.15 9.78001 13.08 9.56001 12.97 9.81001C12.99 9.84001 13 9.83001 13.04 9.90001C13.12 10.03 13.17 10.1 13.13 10.19C13.11 10.17 13.12 10.18 13.1 10.15C13.09 10.13 13.08 10.12 13.08 10.11C13.04 10.05 12.97 9.89001 12.91 9.88001C12.8 9.86001 12.58 10.24 12.62 10.35C12.65 10.4 12.68 10.46 12.76 10.46L12.91 10.16C12.96 10.19 12.98 10.25 13 10.31Z" fill="#332C2B"/>
<path fill-rule="evenodd" clip-rule="evenodd" d="M11.56 10.16C11.59 10.23 11.66 10.42 11.72 10.45C11.82 10.5 11.92 10.34 11.95 10.27C12.01 10.14 11.92 10.05 11.87 9.95C11.8 9.83 11.69 9.54 11.59 9.81C11.59 9.81 11.6 9.81 11.6 9.82L11.66 9.89C11.72 9.99 11.81 10.11 11.75 10.18C11.64 10.09 11.59 9.7 11.39 9.98C11.34 10.05 11.29 10.15 11.26 10.23C11.21 10.34 11.28 10.46 11.37 10.46C11.45 10.37 11.48 10.2 11.56 10.16Z" fill="#332C2B"/>
<path fill-rule="evenodd" clip-rule="evenodd" d="M12.97 17.21L13.63 17.72C13.72 17.8 13.77 17.84 13.68 17.95C13.57 17.96 13.54 17.92 13.46 17.89C13.45 17.94 13.42 17.97 13.4 18.02C13.42 18.06 13.4 18.04 13.43 18.06C13.45 18.07 13.46 18.08 13.48 18.09C13.8 18.28 14.11 17.94 13.8 17.64C13.64 17.48 13.22 17.2 13.09 17.08C13.04 17.11 13 17.17 12.97 17.21Z" fill="#FDF8FA"/>
<path fill-rule="evenodd" clip-rule="evenodd" d="M11.43 18.83C11.49 18.95 11.55 19.06 11.62 19.17C11.68 19.27 11.76 19.45 11.82 19.53C12.12 19.41 12.13 19.27 11.97 18.99C11.83 18.76 11.72 18.62 11.43 18.83Z" fill="#E52129"/>
<path fill-rule="evenodd" clip-rule="evenodd" d="M12.51 18.04L13.08 18.6C13.35 18.4 13.3 18.26 13.08 18.05C12.88 17.85 12.7 17.77 12.51 18.04Z" fill="#E52129"/>
<path fill-rule="evenodd" clip-rule="evenodd" d="M9.30999 7.07C9.29999 7.3 9.65999 7.47 9.74999 7.47C9.84999 7.47 10.2 7.3 10.21 7.07L9.74999 7.03C9.61999 7.04 9.40999 7.02 9.30999 7.07Z" fill="#FDFDFD"/>
<path fill-rule="evenodd" clip-rule="evenodd" d="M7.67999 10.15C7.69999 10.11 7.70999 10.09 7.75999 10.07C7.79999 10.1 7.78999 10.1 7.80999 10.15C7.73999 10.12 7.74999 10.12 7.67999 10.15ZM7.52999 10.3L7.45999 10.41C7.50999 10.46 7.52999 10.5 7.59999 10.52C7.66999 10.48 7.68999 10.39 7.77999 10.35L7.90999 10.53C7.95999 10.53 7.97999 10.51 8.00999 10.49C8.00999 10.45 7.94999 10.37 7.92999 10.33C7.93999 10.33 7.96999 10.33 7.99999 10.3C8.05999 10.24 7.97999 10.15 7.92999 10.07C7.80999 9.87001 7.71999 9.70001 7.45999 10.04C7.40999 10.11 7.36999 10.2 7.45999 10.27C7.50999 10.31 7.48999 10.29 7.52999 10.3Z" fill="#332C2B"/>
<path fill-rule="evenodd" clip-rule="evenodd" d="M11.82 9.02C11.75 9.08 11.7 9.17 11.64 9.22C11.44 9.41 11.43 9.45 11.29 9.22C11.26 9.18 11.21 9.06 11.18 9.02C11.1 9.02 11.03 9.08 11.06 9.17C11.08 9.23 11.14 9.31 11.17 9.36C11.37 9.65 11.49 9.77 11.84 9.36C11.87 9.32 11.97 9.23 11.96 9.18C11.96 9.12 11.87 9.04 11.82 9.02Z" fill="#332C2B"/>
<path fill-rule="evenodd" clip-rule="evenodd" d="M5.96999 9.13C5.88999 9.17 5.72999 9.45 5.55999 9.49C5.40999 9.38 5.40999 9.25 5.30999 9.13C5.07999 9.14 5.25999 9.39 5.31999 9.48C5.48999 9.73 5.58999 9.82 5.83999 9.61C5.88999 9.56 6.09999 9.35 6.09999 9.29C6.10999 9.25 6.01999 9.15 5.96999 9.13Z" fill="#332C2B"/>
<path fill-rule="evenodd" clip-rule="evenodd" d="M5.76999 10.55C5.85999 10.46 5.95999 10.26 6.04999 10.19C6.22999 10.28 6.12999 10.55 6.40999 10.54C6.34999 10.48 6.41999 10.53 6.33999 10.36C6.28999 10.23 6.14999 9.91001 5.97999 9.94001C5.85999 9.96001 5.65999 10.3 5.66999 10.39C5.67999 10.46 5.72999 10.53 5.76999 10.55Z" fill="#332C2B"/>
<path fill-rule="evenodd" clip-rule="evenodd" d="M13.81 10.11C13.84 10.15 13.86 10.16 13.86 10.22L13.81 10.25L13.77 10.14L13.81 10.11ZM13.48 10.47C13.51 10.41 13.62 10.29 13.67 10.25C13.73 10.33 13.75 10.41 13.83 10.46C13.91 10.45 13.98 10.35 14.02 10.29C14.01 10.18 13.88 9.91 13.8 9.86C13.72 9.88 13.67 9.95 13.63 10C13.5 10.14 13.22 10.34 13.48 10.47Z" fill="#332C2B"/>
<path fill-rule="evenodd" clip-rule="evenodd" d="M11.81 18.37C11.83 18.43 12.11 18.76 12.17 18.85C12.24 18.93 12.3 19 12.36 19.08C12.41 19.14 12.49 19.25 12.55 19.31C12.59 19.29 12.64 19.25 12.68 19.21L12.13 18.51C12.08 18.44 12.01 18.33 11.94 18.28C11.9 18.3 11.84 18.35 11.81 18.37Z" fill="#FDF8FA"/>
<path fill-rule="evenodd" clip-rule="evenodd" d="M6.92999 19.15C6.96999 19.18 7.01999 19.23 7.06999 19.25C7.16999 19.1 7.71999 18.4 7.77999 18.3C7.74999 18.27 7.68999 18.22 7.63999 18.2L7.28999 18.67C7.22999 18.75 6.94999 19.1 6.92999 19.15Z" fill="#FDF8FA"/>
<path fill-rule="evenodd" clip-rule="evenodd" d="M10.65 10.49C10.72 10.41 10.8 10.18 10.87 10.14C10.94 10.23 10.99 10.39 11.06 10.49C11.11 10.45 11.11 10.47 11.19 10.46C11.12 10.4 11.12 10.28 11.04 10.1C11 10.01 10.92 9.79 10.8 9.85C10.75 9.88 10.36 10.33 10.65 10.49Z" fill="#332C2B"/>
<path fill-rule="evenodd" clip-rule="evenodd" d="M4.59 16.18L4.66 16.33L5.73 15.8L5.66 15.64L4.59 16.18Z" fill="#FDF8FA"/>
<path fill-rule="evenodd" clip-rule="evenodd" d="M5.44 12.01L5.36 12.03L5.06 12.06C5.13 12.17 5.26 12.29 5.31 12.4L5.71 12.36L5.75 11.99C5.67 11.98 5.53 12.01 5.44 12.01Z" fill="#E9DF13"/>
<path fill-rule="evenodd" clip-rule="evenodd" d="M13.87 12.33C13.94 12.36 14.17 12.37 14.26 12.37C14.31 12.32 14.33 12.27 14.38 12.21C14.42 12.17 14.48 12.1 14.51 12.04L14.22 12.01L14.13 12L13.83 11.97L13.87 12.33Z" fill="#E9DF13"/>
<path fill-rule="evenodd" clip-rule="evenodd" d="M12.11 10.47C12.18 10.4 12.26 10.15 12.34 10.12C12.48 10.29 12.4 10.47 12.62 10.45C12.58 10.4 12.61 10.43 12.59 10.35C12.59 10.32 12.57 10.29 12.56 10.26C12.43 9.91 12.3 9.61 12.06 10.15C12 10.28 12.01 10.39 12.11 10.47Z" fill="#332C2B"/>
<path fill-rule="evenodd" clip-rule="evenodd" d="M10.18 17.69L11.06 17.7V17.84L10.18 17.85V17.93H11.14V17.62C11.07 17.6 10.27 17.6 10.18 17.62V17.69Z" fill="#FDFD00"/>
<path fill-rule="evenodd" clip-rule="evenodd" d="M7.62999 16.47C7.60999 16.92 7.63999 17.24 7.64999 17.67C7.64999 17.85 7.62999 17.91 7.76999 17.97C7.77999 17.78 7.73999 17.43 7.72999 17.22C7.70999 16.95 7.70999 16.7 7.70999 16.43C7.64999 16.45 7.66999 16.43 7.62999 16.47Z" fill="#77969C"/>
<path fill-rule="evenodd" clip-rule="evenodd" d="M7.63 16.47C7.67 16.43 7.65 16.45 7.71 16.43C7.71 16.11 7.73 15.86 7.99 15.74C8.32 15.59 8.7 15.64 8.84 15.58L8.65 15.59C8.66 15.54 8.64 15.57 8.67 15.54C8.43 15.55 8.03 15.62 7.86 15.72C7.66 15.84 7.65 16.2 7.63 16.47Z" fill="#CE837C"/>
<path fill-rule="evenodd" clip-rule="evenodd" d="M6.31999 17.58C6.33999 17.64 6.32999 17.63 6.37999 17.67C6.45999 17.76 6.52999 17.89 6.67999 17.78C6.82999 17.66 6.64999 17.48 6.53999 17.4C6.46999 17.45 6.39999 17.53 6.31999 17.58Z" fill="#E52129"/>
<path fill-rule="evenodd" clip-rule="evenodd" d="M9.55999 20.92C9.66999 20.97 9.58999 21 9.78999 21C9.94999 21 9.86999 20.95 9.97999 20.91C10.04 20.95 10.06 21.03 10.12 21.07L10.13 20.9C9.88999 20.76 9.81999 20.88 9.76999 20.91C9.66999 20.84 9.66999 20.81 9.50999 20.85C9.37999 20.89 9.38999 20.95 9.38999 21.09C9.46999 21.04 9.51999 20.98 9.55999 20.92Z" fill="#B87E01"/>
<path fill-rule="evenodd" clip-rule="evenodd" d="M8.38 17.68C8.48 17.69 9.27 17.7 9.32 17.67L9.33 17.63C9.26 17.59 8.4 17.62 8.38 17.62V17.68Z" fill="#FDFD00"/>
<path fill-rule="evenodd" clip-rule="evenodd" d="M9.45999 20.8L9.65999 20.76L9.62999 20.74V20.43L9.75999 20.44L9.45999 20.41V20.8Z" fill="#B97F01"/>
<path fill-rule="evenodd" clip-rule="evenodd" d="M14.76 14.38C14.87 14.48 15.01 14.55 15.12 14.64C15.15 14.6 15.21 14.46 15.21 14.4C15.11 14.4 14.82 14.35 14.76 14.38Z" fill="#E22129"/>
<path fill-rule="evenodd" clip-rule="evenodd" d="M8.25999 19.4L8.48999 19.49L8.52999 19.04C8.51999 19.04 8.51999 19.04 8.51999 19.05L8.44999 19.12C8.39999 19.19 8.26999 19.36 8.25999 19.4Z" fill="#E52129"/>
<path fill-rule="evenodd" clip-rule="evenodd" d="M10.07 19.74L10.32 19.72L10.15 19.29L10.07 19.74Z" fill="#E22129"/>
<path fill-rule="evenodd" clip-rule="evenodd" d="M9.75 20.76L9.92 20.77V20.44H9.76L9.75 20.76Z" fill="#B97F01"/>
<path fill-rule="evenodd" clip-rule="evenodd" d="M9.91998 20.77L10.05 20.8V20.43L9.91998 20.44V20.77Z" fill="#E7B133"/>
<path fill-rule="evenodd" clip-rule="evenodd" d="M8.66999 15.54C8.63999 15.57 8.65999 15.54 8.64999 15.59L8.83999 15.58H9.23999C9.31999 15.58 9.31999 15.59 9.32999 15.52L9.26999 15.5C9.24999 15.5 9.19999 15.51 9.17999 15.51L8.66999 15.54Z" fill="#E7D8D7"/>
<path fill-rule="evenodd" clip-rule="evenodd" d="M9.66 20.76H9.75L9.76 20.44L9.63 20.43V20.74L9.66 20.76Z" fill="#E8B233"/>
<path fill-rule="evenodd" clip-rule="evenodd" d="M6.15999 10.42C6.09999 10.23 5.94999 10.31 5.92999 10.42C5.91999 10.49 5.97999 10.54 6.03999 10.54C6.07999 10.53 6.12999 10.46 6.15999 10.42Z" fill="#332C2B"/>
<path fill-rule="evenodd" clip-rule="evenodd" d="M10.05 20.8L10.13 20.83L10.12 20.42C10.06 20.42 9.96998 20.42 9.91998 20.44L10.05 20.43V20.8Z" fill="#B87E01"/>
<path fill-rule="evenodd" clip-rule="evenodd" d="M12.31 10.45C12.37 10.42 12.39 10.39 12.42 10.33C12.4 10.28 12.38 10.25 12.34 10.22C12.22 10.23 12.18 10.41 12.31 10.45Z" fill="#332C2B"/>
<path fill-rule="evenodd" clip-rule="evenodd" d="M9.46 20.8V20.41L9.38 20.4L9.39 20.83L9.46 20.8Z" fill="#E3AE33"/>
<path fill-rule="evenodd" clip-rule="evenodd" d="M8.41998 17.85H8.52998V17.76H8.41998V17.85Z" fill="#FDF8FA"/>
<path fill-rule="evenodd" clip-rule="evenodd" d="M13.15 9.31001C13.18 9.29001 13.23 9.26001 13.27 9.26001C13.34 9.25001 13.35 9.29001 13.4 9.31001C13.37 9.26001 13.35 9.23001 13.31 9.20001C13.23 9.22001 13.19 9.27001 13.15 9.31001Z" fill="#0481D4"/>
<path fill-rule="evenodd" clip-rule="evenodd" d="M8.41 9.34001C8.54 9.30001 8.56 9.32001 8.62 9.39001C8.6 9.35001 8.58 9.30001 8.52 9.26001C8.47 9.28001 8.44 9.30001 8.41 9.34001Z" fill="#067FD0"/>
<path fill-rule="evenodd" clip-rule="evenodd" d="M13.77 10.14L13.81 10.25L13.86 10.22C13.86 10.16 13.84 10.15 13.81 10.11L13.77 10.14Z" fill="#0286DC"/>
<path fill-rule="evenodd" clip-rule="evenodd" d="M7.67999 10.15C7.74999 10.12 7.73999 10.12 7.80999 10.15C7.78999 10.1 7.79999 10.1 7.75999 10.07C7.70999 10.09 7.69999 10.11 7.67999 10.15Z" fill="#0481D4"/>
</svg>
